<svg width="207" height="146" viewBox="0 0 207 146" fill="none" xmlns="http://www.w3.org/2000/svg">
<path d="M199.476 76.1639C198.788 76.5799 198.323 76.9035 197.837 77.1575C195.098 78.5818 192.333 79.9469 189.617 81.4052C188.543 81.9814 187.52 82.6761 186.546 83.4281C185.516 84.2301 185.31 85.0638 185.799 85.7656C186.421 86.6562 187.242 86.2458 188.018 85.9759C188.132 85.9371 188.255 85.8773 188.368 85.8132C193.112 83.3738 197.875 80.9788 202.595 78.4802C205.396 76.9954 205.506 75.3398 202.873 73.6748C198.755 71.0597 194.567 68.5871 190.051 66.7027C189.587 66.5126 189.114 66.3436 188.63 66.2312C187.573 65.9824 186.732 66.2622 186.48 66.9669C186.143 67.9423 186.651 68.6276 187.342 69.1063C188.325 69.7774 189.356 70.3586 190.396 70.9187C192.919 72.2816 195.474 73.5963 197.993 74.9697C198.457 75.2208 198.833 75.6562 199.45 76.1657L199.476 76.1639Z" fill="#F8F8F8" fill-opacity="0.6"/>
<path d="M165.727 79.5587C165.441 79.5642 164.858 79.4845 164.332 79.6243C162.08 80.22 159.831 80.8663 157.594 81.5168C157.244 81.6185 156.813 81.7972 156.621 82.0858C156.319 82.5247 155.924 83.1585 156.036 83.547C156.154 83.9504 156.795 84.3107 157.269 84.4187C157.784 84.544 158.394 84.4387 158.935 84.2927C161.005 83.7204 163.073 83.1228 165.133 82.4851C165.602 82.3342 166.075 82.0507 166.437 81.7092C167.272 80.901 167.07 80.0105 165.742 79.5526L165.727 79.5587Z" fill="#F8F8F8" fill-opacity="0.6"/>
<path d="M8.32988 56.5481C8.17875 57.0981 8.01379 57.4711 7.99265 57.854C7.91668 58.9732 8.74524 59.5081 9.72136 58.9897C10.0057 58.8369 10.265 58.6248 10.4926 58.3998C12.2351 56.641 13.9777 54.8822 15.7096 53.1191C16.1734 52.6481 16.6716 52.0932 16.2607 51.4111C15.8665 50.7481 15.1593 50.8503 14.5612 51.1073C11.8701 52.2332 9.84089 54.1806 8.34045 56.5524L8.32988 56.5481Z" fill="#F8F8F8" fill-opacity="0.6"/>
<path d="M185.852 76.5728C185.609 76.5345 185.172 76.3679 184.752 76.4288C182.828 76.7058 180.89 77.0142 178.984 77.3966C178.45 77.4964 177.852 77.8144 177.5 78.2213C177.168 78.6115 176.897 79.3329 177.028 79.7659C177.159 80.1988 177.775 80.4999 178.248 80.73C178.493 80.8546 178.874 80.7659 179.179 80.6828C181.095 80.2183 183.01 79.7539 184.906 79.245C185.381 79.1089 185.856 78.8507 186.256 78.5369C187.155 77.8157 187.051 77.0757 185.867 76.5666L185.852 76.5728Z" fill="#F8F8F8" fill-opacity="0.6"/>
<path d="M72.2931 81.8536C72.18 81.2567 72.1837 80.5852 71.9179 80.0604C70.7042 77.6058 69.412 75.1925 68.1346 72.7731C67.9902 72.4937 67.7887 72.2032 67.5271 72.0595C67.1854 71.8707 66.6283 71.606 66.3904 71.7657C66.0401 71.9894 65.7471 72.5548 65.694 72.9858C65.6405 73.4779 65.8301 74.0083 66.0095 74.4733C67.0404 77.0733 68.7786 79.1796 70.4574 81.3105C70.7747 81.7095 71.3556 81.8861 71.8217 82.1625C71.9767 82.0546 72.1318 81.9467 72.2974 81.8432L72.2931 81.8536Z" fill="#F8F8F8" fill-opacity="0.6"/>
<path d="M111.954 97.1655C111.194 96.9156 110.459 96.6027 109.684 96.42C107.685 95.9447 105.679 95.5156 103.674 95.0865C103.129 94.9735 102.57 94.8919 102.008 94.8209C101.348 94.7467 100.681 94.8409 100.478 95.6387C100.286 96.3799 100.729 96.8918 101.333 97.1633C102.186 97.5489 103.04 98.0819 103.94 98.1691C105.979 98.367 108.046 98.4052 110.103 98.378C110.72 98.3738 111.347 97.9571 111.983 97.7279C111.973 97.5404 111.964 97.353 111.95 97.176L111.954 97.1655Z" fill="#F8F8F8" fill-opacity="0.6"/>
<path d="M91.4227 93.1938C90.8016 92.6338 90.2062 92.0108 89.5254 91.5364C87.4682 90.1194 85.379 88.7506 83.294 87.3712C82.982 87.1701 82.6765 86.9227 82.3302 86.8055C81.5003 86.5148 80.9134 87.0456 81.1201 87.9256C81.2194 88.3456 81.4328 88.7877 81.7039 89.1189C83.8059 91.6311 86.5552 93.0131 89.6743 93.7021C90.1731 93.8083 90.7282 93.6561 91.2573 93.6279C91.3131 93.4916 91.3732 93.3449 91.4289 93.2086L91.4227 93.1938Z" fill="#F8F8F8" fill-opacity="0.6"/>
<path d="M148.392 87.6512C148.88 86.5784 148.627 86.0221 147.746 85.8572C147.389 85.7967 146.968 85.7713 146.635 85.8921C144.733 86.5945 142.844 87.3266 140.969 88.1136C140.594 88.2781 140.194 88.6529 140.025 89.0364C139.828 89.4575 139.676 90.1296 139.865 90.4516C140.049 90.784 140.731 91.0752 141.117 90.976C143.328 90.4494 145.547 89.8765 147.49 88.5303C147.902 88.2461 148.216 87.8115 148.401 87.6302L148.392 87.6512Z" fill="#F8F8F8" fill-opacity="0.6"/>
<path d="M132.544 93.8559C131.525 93.8181 130.783 93.6736 130.071 93.7862C127.888 94.0921 125.709 94.4486 123.547 94.8852C122.888 95.0194 122.209 95.3535 121.665 95.7794C120.894 96.3694 121.069 97.2364 121.943 97.5696C122.164 97.6603 122.439 97.7116 122.683 97.6888C125.652 97.4479 128.565 96.9264 131.229 95.3244C131.507 95.1568 131.751 94.9509 131.989 94.7302C132.128 94.6032 132.205 94.4145 132.555 93.8603L132.544 93.8559Z" fill="#F8F8F8" fill-opacity="0.6"/>
<path d="M31.888 48.2125C31.1881 47.7548 30.7401 47.2533 30.2117 47.1594C28.3157 46.8241 26.3959 46.5769 24.4672 46.4118C23.8857 46.3574 23.1969 46.565 22.6621 46.8479C21.7348 47.3373 21.7446 48.2468 22.6068 48.8199C24.3144 49.947 29.6072 49.751 31.8837 48.223L31.888 48.2125Z" fill="#F8F8F8" fill-opacity="0.6"/>
<path d="M46.4339 52.9898C46.0732 51.2514 44.6753 50.7528 43.5449 50.0822C42.4884 49.4418 41.2676 49.0524 40.1042 48.613C39.7094 48.4637 39.24 48.4062 38.8207 48.4672C37.8255 48.6106 37.4312 49.5139 38.0256 50.32C38.2775 50.6678 38.6334 50.9725 39.0154 51.1533C40.6679 51.903 42.3228 52.6169 44.0097 53.2827C44.7591 53.5893 45.5643 53.7597 46.4445 52.9941L46.4339 52.9898Z" fill="#F8F8F8" fill-opacity="0.6"/>
<path d="M60.1975 64.0431C59.9957 63.4221 59.9199 62.975 59.7144 62.6339C58.5795 60.8602 57.2447 59.2738 55.5694 58.0376C55.5209 58.0055 55.481 57.9525 55.4177 57.9266C54.8229 57.5731 54.1867 57.0802 53.5421 57.722C52.8401 58.4137 53.1784 59.2129 53.6065 59.8531C54.912 61.7823 56.5667 63.2793 58.7844 64.0032C59.1561 64.1187 59.584 64.0368 60.2081 64.0474L60.1975 64.0431Z" fill="#F8F8F8" fill-opacity="0.6"/>
<path d="M1.0057 73.3016C3.11727 72.1465 5.38419 67.7511 5.3267 65.1211C3.67669 65.4493 2.87564 66.8347 2.20261 68.0277C1.36065 69.5432 0.302283 71.1659 0.995134 73.2972L1.0057 73.3016Z" fill="#F8F8F8" fill-opacity="0.6"/>
</svg>
