<svg width="207" height="146" viewBox="0 0 207 146" fill="none" xmlns="http://www.w3.org/2000/svg">
<path d="M199.476 69.9732C198.788 69.5572 198.323 69.2336 197.837 68.9796C195.098 67.5553 192.333 66.1902 189.617 64.7319C188.543 64.1557 187.52 63.461 186.546 62.7089C185.516 61.907 185.31 61.0733 185.799 60.3715C186.421 59.4809 187.242 59.8913 188.018 60.1612C188.132 60.2 188.255 60.2598 188.368 60.3239C193.112 62.7633 197.875 65.1583 202.595 67.6569C205.396 69.1417 205.506 70.7973 202.873 72.4623C198.755 75.0773 194.567 77.55 190.051 79.4344C189.587 79.6244 189.114 79.7935 188.63 79.9059C187.573 80.1547 186.732 79.8749 186.48 79.1702C186.143 78.1947 186.651 77.5095 187.342 77.0308C188.325 76.3597 189.356 75.7785 190.396 75.2183C192.919 73.8555 195.474 72.5407 197.993 71.1674C198.457 70.9163 198.833 70.4809 199.45 69.9714L199.476 69.9732Z" fill="#F8F8F8" fill-opacity="0.6"/>
<path d="M165.727 66.5784C165.441 66.5729 164.858 66.6526 164.332 66.5127C162.08 65.917 159.831 65.2708 157.594 64.6202C157.244 64.5186 156.813 64.3399 156.621 64.0513C156.319 63.6123 155.924 62.9786 156.036 62.59C156.154 62.1867 156.795 61.8264 157.269 61.7184C157.784 61.5931 158.394 61.6984 158.935 61.8444C161.005 62.4167 163.073 63.0143 165.133 63.6519C165.602 63.8029 166.075 64.0864 166.437 64.4279C167.272 65.2361 167.07 66.1266 165.742 66.5845L165.727 66.5784Z" fill="#F8F8F8" fill-opacity="0.6"/>
<path d="M8.32939 89.5889C8.17827 89.0389 8.01331 88.6659 7.99216 88.283C7.91619 87.1638 8.74476 86.629 9.72087 87.1473C10.0052 87.3001 10.2645 87.5122 10.4921 87.7372C12.2347 89.496 13.9772 91.2548 15.7091 93.018C16.173 93.489 16.6711 94.0438 16.2602 94.7259C15.866 95.3889 15.1588 95.2867 14.5607 95.0297C11.8696 93.9039 9.8404 91.9564 8.33996 89.5846L8.32939 89.5889Z" fill="#F8F8F8" fill-opacity="0.6"/>
<path d="M185.852 69.5643C185.609 69.6026 185.172 69.7692 184.752 69.7083C182.828 69.4313 180.89 69.1229 178.984 68.7404C178.45 68.6407 177.852 68.3227 177.5 67.9158C177.168 67.5255 176.897 66.8041 177.028 66.3712C177.159 65.9383 177.775 65.6372 178.248 65.4071C178.493 65.2825 178.874 65.3712 179.179 65.4543C181.095 65.9188 183.01 66.3832 184.906 66.892C185.381 67.0282 185.856 67.2864 186.256 67.6002C187.155 68.3214 187.051 69.0614 185.867 69.5705L185.852 69.5643Z" fill="#F8F8F8" fill-opacity="0.6"/>
<path d="M72.2928 64.2834C72.1798 64.8804 72.1834 65.5519 71.9176 66.0767C70.7039 68.5313 69.4117 70.9446 68.1344 73.364C67.9899 73.6434 67.7884 73.9338 67.5269 74.0776C67.1851 74.2664 66.628 74.5311 66.3902 74.3714C66.0398 74.1477 65.7469 73.5823 65.6937 73.1513C65.6402 72.6592 65.8299 72.1288 66.0093 71.6638C67.0402 69.0638 68.7784 66.9575 70.4572 64.8266C70.7745 64.4275 71.3554 64.251 71.8214 63.9746C71.9765 64.0825 72.1315 64.1904 72.2971 64.2939L72.2928 64.2834Z" fill="#F8F8F8" fill-opacity="0.6"/>
<path d="M111.954 48.9716C111.194 49.2215 110.459 49.5343 109.684 49.7171C107.685 50.1924 105.679 50.6215 103.674 51.0506C103.129 51.1636 102.57 51.2452 102.008 51.3162C101.348 51.3904 100.681 51.2962 100.478 50.4984C100.286 49.7572 100.729 49.2453 101.333 48.9738C102.186 48.5882 103.04 48.0552 103.94 47.968C105.979 47.7701 108.046 47.7319 110.103 47.7591C110.72 47.7633 111.347 48.18 111.983 48.4092C111.973 48.5967 111.964 48.7841 111.95 48.9611L111.954 48.9716Z" fill="#F8F8F8" fill-opacity="0.6"/>
<path d="M91.4227 52.9432C90.8016 53.5033 90.2062 54.1263 89.5254 54.6007C87.4682 56.0176 85.379 57.3865 83.294 58.7659C82.982 58.967 82.6765 59.2144 82.3302 59.3316C81.5003 59.6223 80.9134 59.0915 81.1201 58.2115C81.2194 57.7915 81.4328 57.3494 81.7039 57.0181C83.8059 54.506 86.5552 53.124 89.6743 52.435C90.1731 52.3288 90.7282 52.481 91.2573 52.5092C91.3131 52.6455 91.3732 52.7922 91.4289 52.9285L91.4227 52.9432Z" fill="#F8F8F8" fill-opacity="0.6"/>
<path d="M148.392 58.4859C148.88 59.5587 148.627 60.115 147.746 60.2799C147.389 60.3404 146.968 60.3658 146.635 60.245C144.733 59.5425 142.844 58.8105 140.969 58.0235C140.594 57.859 140.194 57.4842 140.025 57.1007C139.828 56.6796 139.676 56.0075 139.865 55.6855C140.049 55.3531 140.731 55.0619 141.117 55.161C143.328 55.6877 145.547 56.2606 147.49 57.6068C147.902 57.891 148.216 58.3256 148.401 58.5069L148.392 58.4859Z" fill="#F8F8F8" fill-opacity="0.6"/>
<path d="M132.544 52.2811C131.525 52.319 130.783 52.4635 130.071 52.3509C127.888 52.045 125.709 51.6885 123.547 51.2519C122.888 51.1176 122.209 50.7836 121.665 50.3577C120.894 49.7677 121.069 48.9007 121.943 48.5675C122.164 48.4768 122.439 48.4255 122.683 48.4483C125.652 48.6892 128.565 49.2107 131.229 50.8127C131.507 50.9803 131.751 51.1862 131.989 51.4069C132.128 51.5339 132.205 51.7226 132.555 52.2768L132.544 52.2811Z" fill="#F8F8F8" fill-opacity="0.6"/>
<path d="M31.8885 97.9246C31.1886 98.3823 30.7406 98.8838 30.2122 98.9776C28.3162 99.313 26.3964 99.5601 24.4677 99.7253C23.8861 99.7797 23.1974 99.5721 22.6626 99.2892C21.7353 98.7998 21.7451 97.8903 22.6073 97.3172C24.3149 96.1901 29.6077 96.3861 31.8842 97.9141L31.8885 97.9246Z" fill="#F8F8F8" fill-opacity="0.6"/>
<path d="M46.4334 93.1473C46.0727 94.8857 44.6748 95.3843 43.5444 96.0549C42.4879 96.6952 41.2671 97.0847 40.1037 97.524C39.7089 97.6734 39.2395 97.7308 38.8202 97.6699C37.825 97.5265 37.4307 96.6232 38.0251 95.8171C38.2771 95.4693 38.6329 95.1645 39.0149 94.9838C40.6675 94.2341 42.3223 93.5202 44.0092 92.8544C44.7586 92.5477 45.5638 92.3773 46.444 93.143L46.4334 93.1473Z" fill="#F8F8F8" fill-opacity="0.6"/>
<path d="M60.1975 82.094C59.9957 82.715 59.9199 83.1621 59.7144 83.5032C58.5795 85.2769 57.2447 86.8633 55.5694 88.0995C55.5209 88.1315 55.481 88.1846 55.4177 88.2105C54.8229 88.564 54.1867 89.0569 53.5421 88.4151C52.8401 87.7234 53.1784 86.9242 53.6065 86.284C54.912 84.3548 56.5667 82.8578 58.7844 82.1338C59.1561 82.0184 59.584 82.1003 60.2081 82.0897L60.1975 82.094Z" fill="#F8F8F8" fill-opacity="0.6"/>
<path d="M1.0057 72.8355C3.11727 73.9906 5.38419 78.386 5.3267 81.016C3.67669 80.6877 2.87564 79.3024 2.20261 78.1093C1.36065 76.5939 0.302283 74.9711 0.995134 72.8399L1.0057 72.8355Z" fill="#F8F8F8" fill-opacity="0.6"/>
</svg>
