<svg width="165" height="116" viewBox="0 0 165 116" fill="none" xmlns="http://www.w3.org/2000/svg">
<path d="M159.709 60.1995C159.158 60.5326 158.786 60.7917 158.396 60.995C156.203 62.1354 153.99 63.2284 151.815 64.3959C150.956 64.8573 150.136 65.4135 149.357 66.0156C148.532 66.6577 148.367 67.3251 148.759 67.8871C149.256 68.6001 149.914 68.2715 150.535 68.0554C150.626 68.0243 150.725 67.9765 150.815 67.9251C154.614 65.9721 158.427 64.0545 162.206 62.054C164.448 60.8653 164.537 59.5397 162.428 58.2066C159.131 56.1129 155.778 54.1333 152.163 52.6245C151.791 52.4724 151.412 52.337 151.025 52.247C150.179 52.0478 149.505 52.2718 149.304 52.8361C149.034 53.617 149.441 54.1656 149.994 54.5489C150.781 55.0863 151.606 55.5515 152.439 56.0001C154.459 57.0912 156.505 58.1439 158.521 59.2434C158.893 59.4444 159.194 59.793 159.688 60.201L159.709 60.1995Z" fill="#F8F8F8" fill-opacity="0.6"/>
<path d="M132.687 62.9176C132.459 62.922 131.991 62.8582 131.571 62.9701C129.767 63.447 127.967 63.9644 126.175 64.4853C125.895 64.5667 125.551 64.7098 125.397 64.9408C125.155 65.2923 124.838 65.7997 124.928 66.1108C125.023 66.4337 125.536 66.7222 125.915 66.8087C126.328 66.909 126.816 66.8247 127.249 66.7078C128.907 66.2496 130.563 65.7711 132.212 65.2606C132.587 65.1397 132.966 64.9127 133.255 64.6393C133.925 63.9922 133.763 63.2793 132.699 62.9126L132.687 62.9176Z" fill="#F8F8F8" fill-opacity="0.6"/>
<path d="M6.66885 44.4943C6.54785 44.9347 6.41578 45.2333 6.39885 45.5399C6.33802 46.436 7.00141 46.8642 7.78293 46.4492C8.01059 46.3268 8.21819 46.157 8.40044 45.9769C9.79556 44.5687 11.1907 43.1605 12.5774 41.7489C12.9487 41.3718 13.3476 40.9276 13.0185 40.3814C12.703 39.8506 12.1367 39.9324 11.6579 40.1382C9.50326 41.0396 7.87863 42.5988 6.67731 44.4978L6.66885 44.4943Z" fill="#F8F8F8" fill-opacity="0.6"/>
<path d="M148.8 60.5269C148.606 60.4962 148.256 60.3628 147.92 60.4116C146.379 60.6333 144.828 60.8803 143.302 61.1865C142.874 61.2663 142.395 61.521 142.114 61.8467C141.848 62.1592 141.631 62.7368 141.736 63.0834C141.841 63.43 142.334 63.671 142.713 63.8553C142.909 63.9551 143.214 63.8841 143.458 63.8175C144.992 63.4456 146.525 63.0738 148.043 62.6664C148.423 62.5574 148.804 62.3506 149.124 62.0994C149.844 61.522 149.76 60.9295 148.812 60.5219L148.8 60.5269Z" fill="#F8F8F8" fill-opacity="0.6"/>
<path d="M57.8807 64.7549C57.7901 64.277 57.7931 63.7394 57.5802 63.3192C56.6085 61.3539 55.5739 59.4218 54.5512 57.4847C54.4356 57.261 54.2742 57.0284 54.0648 56.9134C53.7912 56.7622 53.3452 56.5503 53.1547 56.6781C52.8742 56.8572 52.6397 57.3099 52.5971 57.655C52.5543 58.049 52.7061 58.4736 52.8498 58.8459C53.6752 60.9276 55.0668 62.614 56.411 64.3201C56.665 64.6396 57.1301 64.7809 57.5032 65.0022C57.6274 64.9158 57.7515 64.8295 57.8841 64.7466L57.8807 64.7549Z" fill="#F8F8F8" fill-opacity="0.6"/>
<path d="M89.6347 77.0143C89.026 76.8142 88.4378 76.5637 87.817 76.4174C86.2165 76.0368 84.6108 75.6933 83.0051 75.3497C82.5685 75.2592 82.1217 75.194 81.6714 75.1371C81.1432 75.0777 80.6092 75.1531 80.4464 75.7919C80.2924 76.3853 80.6476 76.7952 81.1309 77.0125C81.8135 77.3213 82.4973 77.748 83.2185 77.8178C84.8507 77.9762 86.5056 78.0068 88.1522 77.985C88.6469 77.9817 89.1485 77.6481 89.6577 77.4646C89.65 77.3145 89.6424 77.1644 89.6313 77.0227L89.6347 77.0143Z" fill="#F8F8F8" fill-opacity="0.6"/>
<path d="M73.1966 73.8344C72.6994 73.386 72.2227 72.8872 71.6776 72.5074C70.0305 71.3729 68.3578 70.2769 66.6885 69.1725C66.4387 69.0115 66.1941 68.8135 65.9168 68.7196C65.2524 68.4869 64.7825 68.9119 64.948 69.6164C65.0275 69.9527 65.1983 70.3067 65.4154 70.5719C67.0983 72.5832 69.2995 73.6897 71.7968 74.2413C72.1962 74.3264 72.6406 74.2045 73.0643 74.1819C73.1089 74.0728 73.157 73.9553 73.2016 73.8462L73.1966 73.8344Z" fill="#F8F8F8" fill-opacity="0.6"/>
<path d="M118.808 69.3967C119.199 68.5378 118.997 68.0924 118.291 67.9604C118.005 67.9119 117.668 67.8916 117.402 67.9883C115.879 68.5507 114.366 69.1368 112.865 69.7669C112.565 69.8986 112.245 70.1987 112.109 70.5058C111.951 70.8429 111.83 71.381 111.981 71.6388C112.129 71.9049 112.674 72.1381 112.983 72.0587C114.754 71.6371 116.53 71.1784 118.086 70.1005C118.416 69.873 118.667 69.525 118.815 69.3799L118.808 69.3967Z" fill="#F8F8F8" fill-opacity="0.6"/>
<path d="M106.121 74.3645C105.304 74.3342 104.71 74.2185 104.141 74.3087C102.393 74.5536 100.648 74.839 98.9165 75.1886C98.3891 75.2961 97.8455 75.5635 97.41 75.9045C96.7925 76.3769 96.9327 77.071 97.6325 77.3378C97.81 77.4105 98.03 77.4515 98.2249 77.4333C100.603 77.2404 102.934 76.8228 105.067 75.5402C105.29 75.406 105.486 75.2412 105.676 75.0645C105.787 74.9628 105.849 74.8117 106.129 74.368L106.121 74.3645Z" fill="#F8F8F8" fill-opacity="0.6"/>
<path d="M25.5311 37.8205C24.9707 37.454 24.6121 37.0525 24.189 36.9774C22.671 36.7089 21.1339 36.511 19.5897 36.3788C19.1241 36.3352 18.5727 36.5014 18.1445 36.7279C17.4021 37.1197 17.4099 37.8479 18.1003 38.3068C19.4674 39.2092 23.705 39.0523 25.5277 37.8289L25.5311 37.8205Z" fill="#F8F8F8" fill-opacity="0.6"/>
<path d="M37.1764 41.6454C36.8876 40.2536 35.7684 39.8544 34.8634 39.3175C34.0175 38.8048 33.0401 38.493 32.1086 38.1412C31.7925 38.0217 31.4167 37.9756 31.081 38.0244C30.2842 38.1392 29.9685 38.8624 30.4444 39.5078C30.6461 39.7864 30.9311 40.0303 31.2369 40.1751C32.56 40.7753 33.8849 41.3468 35.2355 41.8799C35.8355 42.1254 36.4802 42.2619 37.1849 41.6489L37.1764 41.6454Z" fill="#F8F8F8" fill-opacity="0.6"/>
<path d="M48.1968 50.4951C48.0352 49.9979 47.9745 49.6399 47.81 49.3669C46.9013 47.9467 45.8326 46.6766 44.4913 45.6869C44.4525 45.6612 44.4205 45.6187 44.3698 45.5979C43.8937 45.3149 43.3843 44.9203 42.8682 45.4341C42.3061 45.9879 42.577 46.6279 42.9198 47.1404C43.965 48.685 45.2898 49.8836 47.0653 50.4632C47.363 50.5556 47.7055 50.49 48.2052 50.4985L48.1968 50.4951Z" fill="#F8F8F8" fill-opacity="0.6"/>
<path d="M0.805204 57.9078C2.49581 56.983 4.3108 53.4639 4.26478 51.3582C2.94371 51.621 2.30236 52.7302 1.7635 53.6854C1.08939 54.8987 0.24202 56.1979 0.796744 57.9043L0.805204 57.9078Z" fill="#F8F8F8" fill-opacity="0.6"/>
</svg>
