<svg width="631" height="634" viewBox="0 0 631 634" fill="none" xmlns="http://www.w3.org/2000/svg">
<path d="M315.5 0L334.241 17.7097L355.043 2.49963L371.426 22.4297L393.962 9.95914L407.73 31.7953L431.643 22.2609L442.579 45.6587L467.493 39.2108L475.424 63.8013L500.946 60.5416L505.747 85.937L531.475 85.9169L533.07 111.717L558.597 114.937L556.962 140.734L581.885 147.143L577.045 172.531L600.973 182.028L593.004 206.606L615.558 219.042L604.586 242.422L625.412 257.6L611.609 279.415L630.377 297.095L613.963 317L630.377 336.905L611.609 354.585L625.412 376.4L604.586 391.578L615.558 414.958L593.004 427.394L600.973 451.972L577.045 461.469L581.885 486.857L556.962 493.266L558.597 519.063L533.07 522.283L531.475 548.083L505.747 548.063L500.946 573.458L475.424 570.199L467.493 594.789L442.579 588.341L431.643 611.739L407.73 602.205L393.962 624.041L371.426 611.57L355.043 631.5L334.241 616.29L315.5 634L296.759 616.29L275.957 631.5L259.574 611.57L237.038 624.041L223.27 602.205L199.357 611.739L188.421 588.341L163.507 594.789L155.576 570.199L130.054 573.458L125.253 548.063L99.5254 548.083L97.9298 522.283L72.4031 519.063L74.0384 493.266L49.1145 486.857L53.9549 461.469L30.0271 451.972L37.9961 427.394L15.4417 414.958L26.4138 391.578L5.58838 376.4L19.3905 354.585L0.622559 336.905L17.037 317L0.622559 297.095L19.3905 279.415L5.58838 257.6L26.4138 242.422L15.4417 219.042L37.9961 206.606L30.0271 182.028L53.9549 172.531L49.1145 147.143L74.0384 140.734L72.4031 114.937L97.9298 111.717L99.5254 85.9169L125.253 85.937L130.054 60.5416L155.576 63.8013L163.507 39.2108L188.421 45.6587L199.357 22.2609L223.27 31.7953L237.038 9.95914L259.574 22.4297L275.957 2.49963L296.759 17.7097L315.5 0Z" fill="#202020"/>
</svg>
