<svg width="787" height="792" viewBox="0 0 787 792" fill="none" xmlns="http://www.w3.org/2000/svg">
<path d="M393.722 0L417.109 22.1115L443.069 3.12091L463.515 28.0046L491.637 12.4344L508.819 39.6979L538.661 27.7937L552.309 57.0069L583.399 48.9565L593.297 79.6588L625.146 75.589L631.138 107.296L663.244 107.271L665.235 139.483L697.091 143.504L695.05 175.713L726.153 183.715L720.113 215.413L749.973 227.27L740.028 257.957L768.174 273.484L754.482 302.676L780.471 321.626L763.247 348.862L786.668 370.937L766.184 395.789L786.668 420.641L763.247 442.716L780.471 469.953L754.482 488.903L768.174 518.095L740.028 533.621L749.973 564.308L720.113 576.166L726.153 607.864L695.05 615.866L697.091 648.075L665.235 652.095L663.244 684.307L631.138 684.282L625.146 715.989L593.297 711.919L583.399 742.622L552.309 734.571L538.661 763.784L508.819 751.88L491.637 779.144L463.515 763.574L443.069 788.457L417.109 769.467L393.722 791.578L370.335 769.467L344.376 788.457L323.93 763.574L295.808 779.144L278.625 751.88L248.783 763.784L235.136 734.571L204.045 742.622L194.148 711.919L162.298 715.989L156.307 684.282L124.201 684.307L122.21 652.095L90.3541 648.075L92.3948 615.866L61.2916 607.864L67.332 576.166L37.4717 564.308L47.4166 533.621L19.2701 518.095L32.9626 488.903L6.97391 469.953L24.198 442.716L0.776917 420.641L21.261 395.789L0.776917 370.937L24.198 348.862L6.97391 321.626L32.9626 302.676L19.2701 273.484L47.4166 257.957L37.4717 227.27L67.332 215.413L61.2916 183.715L92.3948 175.713L90.3541 143.504L122.21 139.483L124.201 107.271L156.307 107.296L162.298 75.589L194.148 79.6588L204.045 48.9565L235.136 57.0069L248.783 27.7937L278.625 39.6979L295.808 12.4344L323.93 28.0046L344.376 3.12091L370.335 22.1115L393.722 0Z" fill="#202020"/>
</svg>
