<svg width="175" height="382" viewBox="0 0 175 382" fill="none" xmlns="http://www.w3.org/2000/svg">
<g clip-path="url(#clip0_221_1666)">
<path d="M169.526 84.6298C169.289 84.6348 169.054 84.5905 168.835 84.4996C168.616 84.4088 168.419 84.2734 168.256 84.1022C164.435 79.2838 160.57 74.5006 156.714 69.7173L150.6 62.1292L147.538 58.3308L146.126 56.5722C145.614 55.9304 145.12 55.2797 144.564 54.673C144.179 54.2835 143.961 53.7602 143.956 53.2134C143.956 52.9422 144.009 52.6735 144.114 52.423C144.218 52.1725 144.371 51.9451 144.564 51.7538C144.752 51.5631 144.975 51.4118 145.223 51.3091C145.47 51.2064 145.735 51.1543 146.003 51.1559C146.368 51.1534 146.727 51.2452 147.046 51.4224C147.364 51.5997 147.631 51.8563 147.82 52.1671C147.909 52.3078 148.006 52.4397 148.103 52.5716C155.647 62.2435 163.165 71.9595 170.788 81.5875L171.07 81.948C171.224 82.2161 171.306 82.5188 171.309 82.8273C171.309 83.2937 171.123 83.741 170.792 84.0707C170.461 84.4005 170.012 84.5858 169.544 84.5858L169.526 84.6298Z" fill="#202020"/>
<path d="M178.914 188.771C179.146 188.905 179.349 189.084 179.511 189.297C179.674 189.509 179.793 189.752 179.861 190.01C179.93 190.268 179.946 190.538 179.91 190.803C179.874 191.067 179.786 191.323 179.651 191.554C179.516 191.784 179.337 191.987 179.123 192.149C178.91 192.31 178.667 192.429 178.407 192.497C178.148 192.565 177.878 192.582 177.612 192.546C177.346 192.51 177.09 192.422 176.859 192.288C153.917 179.597 130.956 166.941 107.973 154.321C102.538 151.32 97.1056 148.31 91.6761 145.291C89.1056 143.855 86.532 142.427 83.9556 141.009L79.932 138.784L77.9556 137.685C77.6026 137.492 77.2585 137.281 76.9144 137.087C76.697 136.956 76.5056 136.786 76.3497 136.586C76.2431 136.47 76.1485 136.343 76.0674 136.208C75.886 135.895 75.7888 135.54 75.785 135.179C75.7906 134.655 75.9947 134.153 76.3564 133.773C76.7181 133.393 77.2105 133.164 77.735 133.13H77.8409C78.2673 133.143 78.6859 133.248 79.0673 133.438L80.1262 134.001C80.7968 134.353 81.4497 134.731 82.1115 135.1L86.4615 137.5L94.8968 142.16C100.685 145.361 106.473 148.562 112.261 151.762C123.779 158.146 135.309 164.541 146.85 170.948C157.514 176.892 168.203 182.833 178.914 188.771Z" fill="#202020"/>
<path d="M248.02 298.082C248.217 298.083 248.413 298.11 248.603 298.161C248.898 298.242 249.174 298.381 249.415 298.568C249.656 298.756 249.858 298.989 250.009 299.254C250.159 299.52 250.256 299.812 250.294 300.115C250.331 300.418 250.308 300.725 250.226 301.018C250.15 301.309 250.016 301.582 249.833 301.82C249.65 302.059 249.42 302.258 249.159 302.408C237.317 307.991 225.52 313.68 213.715 319.334C201.909 324.987 189.988 330.694 178.12 336.356L165.256 342.511L158.514 345.729L155.32 347.251C154.083 347.873 152.807 348.417 151.5 348.877C150.974 349.022 150.416 349.007 149.898 348.834C149.381 348.661 148.927 348.338 148.594 347.907C148.262 347.475 148.066 346.955 148.032 346.412C147.998 345.869 148.127 345.328 148.403 344.859C148.637 344.453 148.975 344.116 149.382 343.883C149.7 343.681 150 343.496 150.326 343.329L151.376 342.819L153.494 341.808L158.126 339.654L166.95 335.539L184.597 327.317C196.538 321.749 208.491 316.201 220.456 310.673C229.235 306.602 238.032 302.548 246.785 298.416C247.166 298.211 247.588 298.097 248.02 298.082Z" fill="#202020"/>
<path d="M104.568 365.504L105.15 365.029L105.433 364.792C105.715 364.554 105.997 364.326 106.315 364.115L108.291 363.112C109.527 362.488 110.797 361.943 112.05 361.354L119.665 357.784C125.03 355.287 130.391 352.772 135.75 350.24C136.2 350.005 136.698 349.876 137.206 349.862C137.439 349.865 137.67 349.897 137.894 349.959C138.599 350.154 139.2 350.614 139.571 351.242C139.945 351.893 140.046 352.663 139.853 353.388C139.759 353.735 139.596 354.061 139.375 354.346C139.154 354.631 138.879 354.87 138.565 355.05C133.33 357.517 128.1 359.994 122.877 362.479L115.262 366.093L111.53 367.852C110.85 368.177 110.171 368.458 109.483 368.731C109.042 368.953 108.577 369.124 108.097 369.241L106.942 369.461C106.43 369.601 105.887 369.57 105.395 369.371C104.904 369.172 104.492 368.817 104.224 368.362C104.009 367.993 103.893 367.575 103.889 367.148C103.887 366.843 103.947 366.541 104.063 366.258C104.18 365.976 104.351 365.72 104.568 365.504Z" fill="#202020"/>
<path d="M92.4617 376.267C90.6088 377.146 88.7559 378.025 86.9206 378.904L84.0441 380.302C83.1618 380.751 82.1559 381.12 81.2117 381.516L80.6647 381.753C80.2597 381.859 79.8344 381.859 79.4294 381.753C78.9907 381.632 78.5975 381.384 78.299 381.041C78.0004 380.699 77.8096 380.276 77.7503 379.826C77.6911 379.376 77.766 378.919 77.9657 378.511C78.1654 378.103 78.4811 377.763 78.8735 377.533C79.7559 377.058 80.6382 376.557 81.6 376.135L84.5206 374.807C86.3823 373.928 88.2529 373.101 90.1059 372.222C90.4846 372.033 90.9001 371.928 91.3235 371.914C91.5206 371.911 91.7169 371.937 91.9059 371.993C92.2014 372.074 92.4781 372.211 92.72 372.399C92.9618 372.586 93.1641 372.819 93.315 373.085C93.4659 373.351 93.5626 373.644 93.5994 373.947C93.6362 374.25 93.6124 374.557 93.5294 374.851C93.4587 375.147 93.3273 375.426 93.1436 375.67C92.9599 375.913 92.7278 376.116 92.4617 376.267Z" fill="#202020"/>
<path d="M166.033 266.155L167.515 265.936C167.64 265.832 167.773 265.738 167.912 265.654C168.369 265.386 168.89 265.246 169.421 265.25C169.653 265.236 169.886 265.236 170.118 265.25H172.765H176.691L184.174 265.294L199.236 265.373C209.336 265.426 219.436 265.461 229.536 265.478C230.273 265.478 230.98 265.77 231.501 266.29C232.022 266.809 232.315 267.513 232.315 268.248C232.315 268.983 232.022 269.687 231.501 270.207C230.98 270.726 230.273 271.018 229.536 271.018C219.571 271.018 209.603 271.038 199.633 271.079L184.571 271.141H177.089H173.153H171.221C170.633 271.176 170.044 271.176 169.456 271.141C168.926 271.145 168.404 271.005 167.947 270.736C167.805 270.653 167.67 270.559 167.541 270.455L166.068 270.235C165.613 270.109 165.211 269.838 164.924 269.463C164.638 269.089 164.482 268.631 164.48 268.16C164.481 267.779 164.584 267.406 164.78 267.079C164.917 266.85 165.098 266.65 165.313 266.492C165.528 266.333 165.773 266.219 166.033 266.155Z" fill="#202020"/>
<path d="M78.9091 265.223L79.2444 265.109C79.5655 265.018 79.8988 264.976 80.2326 264.986H94.862H111.053H144.424C144.852 264.963 145.28 265.028 145.683 265.176C146.085 265.323 146.453 265.551 146.765 265.845C147.076 266.139 147.323 266.494 147.493 266.886C147.662 267.279 147.75 267.702 147.75 268.129C147.75 268.557 147.662 268.98 147.493 269.372C147.323 269.765 147.076 270.119 146.765 270.413C146.453 270.707 146.085 270.935 145.683 271.083C145.28 271.231 144.852 271.295 144.424 271.273H80.1002C79.6921 271.274 79.2875 271.196 78.9091 271.044H74.1973C70.2885 271.044 66.3797 271.044 62.4797 271.097L56.7179 271.141H53.7973H53.1532C52.4385 271.141 51.7238 271.141 51.0091 271.185C50.601 271.193 50.1952 271.12 49.8162 270.969C49.4372 270.818 49.0926 270.592 48.8032 270.305C48.3858 269.877 48.1009 269.337 47.9827 268.752C47.8645 268.166 47.9179 267.559 48.1365 267.003C48.3551 266.447 48.7297 265.965 49.2156 265.615C49.7015 265.265 50.2781 265.062 50.8767 265.03H51.0091C51.812 265.074 52.6326 265.074 53.4444 265.074H56.3914L62.1444 265.127C66.0502 265.162 69.9591 265.182 73.8708 265.188H78.9091V265.223Z" fill="#202020"/>
<path d="M108.741 434.36C109.238 433.838 109.763 433.342 110.312 432.874C111.459 431.836 112.676 430.887 113.841 429.92C116.25 427.976 118.721 426.104 121.147 424.178C126.218 420.163 131.271 416.124 136.306 412.062C141.362 407.991 146.471 403.972 151.535 399.919C156.6 395.865 161.744 391.803 166.888 387.794C169.006 386.141 171.124 384.47 173.268 382.852L176.312 380.557L177.644 379.573C178.214 379.177 178.803 378.81 179.409 378.473C179.619 378.347 179.86 378.28 180.106 378.28C180.356 378.28 180.601 378.344 180.819 378.465C181.037 378.587 181.22 378.762 181.35 378.975C181.504 379.246 181.564 379.559 181.521 379.868C181.478 380.176 181.334 380.462 181.112 380.68C180.657 381.219 180.174 381.732 179.665 382.219L178.147 383.591C176.912 384.681 175.685 385.771 174.432 386.853C172.05 388.902 169.659 390.959 167.259 393.008C162.309 397.246 157.288 401.414 152.259 405.608C147.229 409.802 142.438 413.917 137.471 418.085C132.503 422.252 127.562 426.297 122.673 430.474C120.721 432.144 118.759 433.797 116.788 435.433C115.773 436.268 114.732 437.086 113.682 437.859C113.206 438.22 112.712 438.545 112.226 438.879C111.63 439.274 110.975 439.57 110.285 439.759C109.847 439.882 109.383 439.882 108.944 439.759C108.57 439.656 108.225 439.47 107.935 439.213C107.645 438.957 107.418 438.638 107.271 438.28C107.125 437.922 107.062 437.536 107.089 437.15C107.116 436.765 107.232 436.391 107.426 436.057C107.78 435.431 108.223 434.859 108.741 434.36Z" fill="#202020"/>
<path d="M116.303 224.232L104.965 221.471L98.3735 219.853C98.246 219.844 98.1192 219.826 97.9941 219.8C97.6324 219.73 97.2706 219.633 96.9088 219.528C95.9294 219.29 94.9412 219.053 93.9618 218.798C93.5076 218.684 93.0866 218.466 92.7325 218.16C92.3785 217.855 92.1014 217.471 91.9235 217.039C91.6113 216.368 91.5457 215.609 91.7382 214.894C91.7382 214.894 91.7382 214.85 91.7382 214.832V214.78V214.727V214.674V214.63C91.7799 214.528 91.8271 214.428 91.8794 214.331V214.287C92.1593 213.786 92.5672 213.367 93.0617 213.074C93.5468 212.794 94.0982 212.648 94.6588 212.652C94.9328 212.652 95.2058 212.687 95.4706 212.757C96.353 212.959 97.2353 213.188 98.1706 213.408C98.6228 213.491 99.0704 213.596 99.5117 213.724C99.6782 213.765 99.8407 213.821 99.9971 213.891C104.656 215.043 109.324 216.151 113.982 217.285L133.024 221.946L171.521 231.363L217.526 242.494C218.321 242.712 218.996 243.236 219.403 243.95C219.81 244.664 219.916 245.51 219.697 246.301C219.478 247.093 218.953 247.766 218.236 248.171C217.52 248.577 216.671 248.682 215.876 248.464C190.165 242.186 164.453 235.929 138.741 229.692L116.303 224.232Z" fill="#202020"/>
<path d="M18.5559 200.078C18.0724 199.951 17.6311 199.699 17.2765 199.348C17.0081 199.082 16.7952 198.765 16.6499 198.417C16.5045 198.068 16.4297 197.695 16.4297 197.317C16.4297 196.94 16.5045 196.566 16.6499 196.217C16.7952 195.869 17.0081 195.552 17.2765 195.286C17.5442 195.021 17.8624 194.812 18.2125 194.671C18.5626 194.531 18.9374 194.462 19.3147 194.468C19.5727 194.468 19.8299 194.495 20.0824 194.547C23.9118 195.427 27.7147 196.394 31.553 197.352L43.3589 200.315C51.4 202.338 59.45 204.328 67.5089 206.286C67.8524 206.38 68.174 206.54 68.4552 206.758C68.7365 206.976 68.972 207.247 69.1481 207.556C69.5039 208.179 69.5966 208.918 69.4059 209.609C69.2152 210.301 68.7566 210.888 68.1311 211.243C67.5057 211.597 66.7645 211.69 66.0706 211.5C58.1353 209.565 50.1941 207.657 42.2471 205.776L30.3883 202.962C26.4441 202.021 22.4471 201.151 18.5647 200.087L18.5559 200.078Z" fill="#202020"/>
<path d="M151.324 303.533C151.235 303.22 151.235 302.888 151.324 302.575C151.383 302.349 151.487 302.136 151.629 301.951C151.771 301.765 151.95 301.609 152.153 301.493C152.506 301.335 152.859 301.185 153.221 301.045L153.988 300.64L154.341 300.368C154.74 300.168 155.169 300.034 155.612 299.972L157.377 299.576L161.594 298.6C164.347 297.967 167.091 297.317 169.844 296.675L186.424 292.744C197.518 290.124 208.603 287.486 219.679 284.831C219.856 284.789 220.036 284.768 220.218 284.769C220.685 284.762 221.142 284.909 221.517 285.187C221.893 285.465 222.165 285.86 222.291 286.308C222.368 286.578 222.39 286.861 222.357 287.14C222.324 287.419 222.236 287.688 222.099 287.933C221.961 288.178 221.776 288.394 221.555 288.568C221.334 288.741 221.08 288.87 220.809 288.946C209.862 291.584 198.921 294.245 187.985 296.93C182.462 298.284 176.941 299.638 171.424 300.992C168.688 301.669 165.944 302.337 163.218 303.023L159.018 304.078L157.191 304.553L156.177 304.817C155.761 304.909 155.33 304.909 154.915 304.817H154.032L154.544 304.746C154.041 304.817 153.547 304.87 153.044 304.896C152.645 304.896 152.257 304.762 151.945 304.514C151.632 304.267 151.413 303.921 151.324 303.533Z" fill="#202020"/>
<path d="M37.9939 328.716C38.3379 328.543 38.6914 328.391 39.0528 328.258C39.6969 328.065 40.341 327.898 40.994 327.722C42.441 327.326 43.9057 326.975 45.4057 326.623C48.3469 325.908 51.3116 325.207 54.2998 324.522L72.7233 320.187C85.0763 317.256 97.4028 314.325 109.703 311.394C116.038 309.893 122.37 308.375 128.7 306.839C128.864 306.797 129.033 306.777 129.203 306.778C129.698 306.759 130.182 306.923 130.563 307.239C130.943 307.556 131.192 308.001 131.262 308.489C131.333 308.978 131.219 309.475 130.943 309.885C130.667 310.295 130.248 310.588 129.767 310.708C105.115 316.652 80.4822 322.672 55.8704 328.768C52.9292 329.507 49.9704 330.231 46.994 330.94C45.5204 331.301 44.0557 331.67 42.5822 331.978L40.5704 332.4C40.1371 332.543 39.6792 332.597 39.2244 332.559C38.7695 332.521 38.327 332.392 37.9233 332.18L37.4381 331.916C37.2061 331.683 37.0362 331.396 36.9439 331.081C36.8214 330.587 36.8907 330.066 37.138 329.621C37.3126 329.232 37.6143 328.913 37.9939 328.716Z" fill="#202020"/>
<path d="M1.41162 338.95C1.51032 338.616 1.73058 338.331 2.02928 338.15L2.34691 337.93L2.81459 337.737L2.45279 337.886L3.33514 337.508C3.67376 337.36 4.0252 337.242 4.38515 337.157C5.10867 336.981 5.8499 336.84 6.58225 336.673C8.10872 336.321 9.63518 335.978 11.1528 335.609L20.9381 333.253C21.0736 333.218 21.2129 333.2 21.3528 333.2C21.7511 333.19 22.1391 333.326 22.443 333.583C22.747 333.839 22.9456 334.198 23.0012 334.592C23.0568 334.985 22.9654 335.384 22.7444 335.715C22.5235 336.045 22.1883 336.283 21.8028 336.383L11.7352 338.801C10.1293 339.188 8.53222 339.601 6.93516 340.005C6.2381 340.172 5.5587 340.383 4.85282 340.533C4.47336 340.599 4.09037 340.643 3.70577 340.665H3.22927C3.0576 340.668 2.88611 340.653 2.71754 340.621C2.47843 340.622 2.24352 340.558 2.03811 340.436C1.73518 340.26 1.51345 339.973 1.42045 339.636C1.36041 339.412 1.35737 339.176 1.41162 338.95Z" fill="#202020"/>
</g>
<defs>
<clipPath id="clip0_221_1666">
<rect width="175" height="382" fill="white" transform="matrix(-1 0 0 1 175 0)"/>
</clipPath>
</defs>
</svg>
