<svg width="328" height="6" viewBox="0 0 328 6" fill="none" xmlns="http://www.w3.org/2000/svg">
<path d="M327.984 5.62896C325.811 5.94836 323.641 6.08486 321.406 5.94574C320.897 5.91429 320.945 5.66743 320.735 5.6275C320.351 5.55376 319.705 5.82013 319.614 5.82013C319.053 5.82352 319.272 5.39145 319.196 5.3748C318.353 5.19938 318.596 5.69154 317.79 5.73883C316.741 5.80053 315.394 5.7125 314.129 5.68829C313.685 5.67861 313.883 5.34968 312.924 5.37737C312.245 5.39673 310.162 5.77163 309.203 5.37114C309.197 5.21992 309.318 5.05295 309.369 4.89689C307.995 5.52718 307.502 5.49952 305.553 5.34587C305.245 5.32167 304.953 5.58062 304.41 5.48504C303.867 5.38937 303.844 4.99019 302.752 4.99503C302.364 4.99771 302.129 5.27921 301.535 5.29131C299.846 5.32638 296.629 4.97674 295.243 4.96464C292.513 4.94045 291.027 5.42089 288.603 5.25395C288.416 5.24185 288.826 4.93334 288.484 4.92728C288.139 4.92123 287.779 5.32997 287.694 5.33965C286.778 5.44485 284.841 4.89729 284.331 4.96354C283.092 5.12567 284.313 5.30579 282.596 5.38323C280.96 5.45692 278.703 4.92476 277.082 4.82071C275.203 4.6998 274.597 5.4728 273.183 4.6658C268.215 4.71298 263.227 4.74186 258.253 4.78299C258.267 4.62212 258.284 4.46118 258.301 4.30031C257.908 4.41162 257.514 4.5231 257.121 4.63321C257.18 4.51346 257.237 4.39358 257.296 4.27504C255.449 4.73712 253.803 4.97549 251.644 4.84854C251.602 4.84614 251.713 4.52538 251.678 4.51711C251.191 4.45662 250.648 4.70337 250.22 4.64529C249.188 4.50615 247.434 3.80673 248.206 4.66214C245.798 4.48552 242.969 4.77473 240.675 4.60904C239.682 4.53767 239.385 4.03072 238.909 4.00147C238.435 3.97247 238.676 4.40808 238.508 4.42483C237.495 4.52162 235.828 4.50364 235.652 4.01612C235.449 4.21086 235.233 4.40796 235.027 4.60391C235.148 4.06336 232.018 4.28679 231.197 4.27358C231.047 4.27116 231.026 4.03421 230.913 4.03663C229.652 4.06698 229.343 4.43837 228.263 4.56179C227.884 4.60535 228.472 4.18778 227.498 4.36806C227.413 4.3839 227.458 4.75904 226.296 4.75662C224.44 4.753 220.889 4.90179 218.68 4.7167C218.499 4.70219 219.05 4.29325 218.222 4.38857C217.922 4.42245 218.065 4.71282 217.338 4.71524C214.52 4.72733 211.516 4.39349 208.641 4.67056C208.746 4.34268 209.77 3.97488 208.231 4.18056C207.985 4.21451 208.168 4.50733 208.058 4.51821C207.164 4.60283 206.389 4.39366 205.422 4.50613C205.136 4.54001 205.065 4.76993 204.709 4.82437C204.182 4.9054 203.95 4.57757 203.338 4.7167C202.383 4.93569 202.235 5.24646 201.05 4.63687C194.333 4.67559 187.648 4.84722 180.954 4.57864C179.019 4.75286 177.233 4.94752 175.216 5.01408C174.622 5.03343 174.508 4.6173 173.561 4.75516C173.348 4.78541 171.834 5.23203 171.614 4.39113C171.192 4.46368 170.926 4.46613 170.564 4.51089C170.838 4.6343 171.122 4.75908 171.385 4.8837C169.857 4.7494 168.609 5.04585 167.257 5.1862C166.261 5.28898 166.968 4.92838 166.357 4.96464C165.746 4.99972 165.468 5.08086 164.704 4.64895C164.105 5.14723 163.706 4.79776 162.6 4.78446C162.481 4.78325 161.794 4.97648 161.22 4.9379C160.807 4.91008 160.685 4.59934 160.029 4.64749C159.921 4.65475 158.534 5.03977 158.093 5.07487C157.405 5.13053 156.313 4.73216 156.18 4.72733C154.248 4.65722 153.503 5.05049 152.131 4.40322C151.854 4.78789 150.709 5.01303 149.784 4.97562C148.615 4.92844 146.272 4.1419 145.952 4.97306C144.6 4.60287 144.747 4.83134 143.143 4.83866C141.684 4.84592 137.819 4.52798 136.636 4.57388C135.453 4.61865 136.029 5.08091 135.56 5.14262C134.791 5.24521 135.206 4.90413 134.68 4.90897C133.192 4.92349 131.899 4.98868 130.479 5.13749C130.402 4.89802 130.32 4.65734 130.241 4.41787C130.167 4.49767 130.094 4.57757 130.021 4.65738C129.715 4.65496 129.373 4.65987 129.09 4.65262C131.477 5.70387 126.784 4.57486 125.375 4.54824C124.187 4.52647 122.209 5.02505 120.904 5.13273C120.588 5.15922 120.805 4.90045 120.74 4.90641C119.976 4.98021 119.861 5.15693 118.833 5.13273C118.29 5.11941 117.736 4.79536 117.207 4.78922C113.322 4.74566 109.573 5.07126 105.714 5.10636C105.058 5.11241 104.492 4.71683 103.94 4.70828C103.151 4.69618 102.653 5.02008 101.912 5.02506C101.174 5.0299 100.109 4.64282 99.6085 4.70206C99.1076 4.76013 99.9646 5.13523 99.0479 5.03239C98.6269 4.98512 99.3705 4.70579 98.8502 4.69729C97.2263 4.67068 94.9346 5.01662 93.206 4.68155C93.2823 4.76501 93.3866 4.84012 93.48 4.91996C91.6382 4.88728 90.011 4.68641 88.1097 4.65738C87.4449 4.64658 86.2458 4.89181 85.5923 4.89066C84.9388 4.88945 84.6415 4.62336 84.1183 4.61599C83.9033 4.61236 83.9874 4.85082 83.8431 4.84598C82.0383 4.78301 81.0481 4.35854 79.1585 4.40688C72.2352 4.58353 65.0962 4.73607 58.0654 4.89579C57.7827 4.90211 57.5925 5.21276 57.1795 5.25871C56.5435 5.32985 56.5124 5.05525 56.4276 5.04557C55.8733 4.98514 56.0993 5.2393 55.3553 5.2393C53.7171 5.2393 51.0745 5.01413 49.442 5.03349C45.6791 5.07825 42.516 5.32035 38.8266 5.44256C38.5606 5.45223 38.7411 5.08447 38.2798 5.07963C35.0295 5.04096 34.3415 5.39308 30.2958 5.29387C26.2499 5.19465 18.6134 4.97187 13.8773 4.92106C13.8773 4.9202 13.8773 4.91935 13.8773 4.91849C12.3864 5.59841 10.4575 5.4293 8.85614 4.9152C18.091 3.23822 26.9267 3.98452 36.7896 3.91798C47.1561 3.84899 58.207 2.63052 68.7121 2.79624C69.6994 2.81197 70.0962 3.19921 70.928 3.11815C71.0686 3.10444 70.7045 2.806 71.1369 2.77573C77.0783 2.3692 83.4132 3.0494 89.2471 2.86069C90.8202 2.80988 91.0668 2.47712 92.4502 2.3912C92.207 2.54844 92.048 2.71286 91.8359 2.87132C98.1509 3.36255 104.475 3.14356 110.872 3.21373C111.16 3.21744 111.197 3.54295 111.5 3.55505C112.105 3.5804 112.685 3.22227 113.214 3.21007C113.905 3.19434 114.024 3.45333 114.661 3.43639C114.971 3.42773 114.878 3.17883 115.554 3.22106C115.611 3.22469 115.648 3.48582 116.097 3.45214C117.328 3.35899 119.843 3.13993 120.862 3.07457C122.163 2.9911 123.207 3.38447 123.699 3.41003C125.029 3.47898 125.001 3.07617 126.127 3.07603C134.139 3.07361 141.799 3.53195 150.001 3.52832C150.517 3.52813 152.422 3.07967 153.376 3.09764C153.695 3.1049 155.367 3.22335 155.617 3.23314C156.633 3.27065 157.51 3.54176 158.071 3.59863C159.157 3.70985 160.371 3.28647 160.962 3.24413C162 3.16915 163.844 3.2248 164.28 3.23571C165.333 3.26232 164.985 3.78602 165.74 3.66382C165.964 3.62731 165.73 3.22582 166.516 3.22582C167.175 3.22719 167.442 3.52955 167.891 3.58398C168.341 3.63809 169.166 3.17051 169.447 3.18224C170.912 3.24757 171.561 3.55397 173.156 3.5697C174.481 3.58175 180.606 3.36741 181.115 3.25731C183.396 2.76535 179.598 2.98606 179.384 2.96946C178.227 2.87388 178.396 2.68512 177.242 3.04564C176.209 1.93372 172.61 3.66499 171.688 2.34615C170.734 3.22457 169.933 2.78172 168.929 2.60507C167.54 2.36092 168.598 2.87281 167.585 2.87644C167.185 2.87739 166.029 2.47839 165.429 2.53403C164.829 2.58979 164.577 2.89576 163.774 2.9127C162.339 2.9441 161.185 2.8013 159.98 2.43478C159.759 2.59687 159.553 2.75903 159.335 2.92112C158.504 2.74689 157.669 2.57374 156.837 2.40072C156.97 2.54228 157.103 2.68507 157.236 2.82664C156.993 2.84721 156.749 2.86661 156.505 2.88596C155.696 2.67303 154.923 2.47589 154.092 2.2557C151.832 3.07457 152.487 2.36583 151.231 2.25936C149.976 2.153 149.249 2.62705 148.278 2.62961C146.971 2.63324 146.371 2.69241 145.053 2.65854C144.289 2.63918 142.993 2.18175 144.057 2.90647C141.672 2.96455 138.406 3.1668 136.273 2.87278C135.643 2.78699 136.483 2.55874 136.376 2.53036C135.841 2.39609 135.391 2.76613 134.839 2.71311C133.923 2.62479 132.137 2.33669 131.416 2.26888C130.377 2.17088 128.745 2.65019 128.578 2.68527C127.645 2.87997 127.395 2.48203 127.095 2.50949C125.389 2.66919 125.013 2.83632 124.475 1.99678C124.034 2.35976 122.183 2.97054 121.736 2.3597C121.725 2.91135 120.189 2.81835 119.244 2.95628C119.068 2.79657 118.89 2.63782 118.715 2.47689C116.743 3.46417 112.816 2.74701 110.221 2.62961C110.156 2.62719 110.04 3.04065 109.65 2.94749C109.625 2.93985 109.665 2.75404 109.403 2.72995C108.54 2.65248 105.247 2.18835 104.869 2.18428C103.474 2.16855 103.23 2.47715 102.381 2.50619C101.264 2.5449 101.102 2.26641 100.039 2.30624C99.541 2.32438 99.088 2.69094 98.3047 2.63913C97.8409 2.6089 97.7949 2.32103 97.4276 2.29781C96.1204 2.21433 95.1605 2.396 94.0005 2.02095C93.6978 2.93667 93.1434 2.26172 92.5691 2.19271C90.2378 1.9108 87.3323 2.29776 85.332 2.21431C79.0908 1.95177 73.5564 1.38701 67.4596 1.25994C66.4693 1.23937 66.2307 1.69915 65.1924 1.67011C64.7256 1.65665 64.2444 1.32374 63.4807 1.3189C62.867 1.31413 61.9875 1.48336 61.221 1.48224C61.0173 1.48224 60.9991 1.17007 60.6992 1.16765C58.4247 1.14955 56.2035 1.37118 53.9063 1.52362C53.0549 1.58034 52.5284 1.16673 52.6726 1.88655C52.3473 1.70991 52.031 1.55611 51.7255 1.38189C50.5541 1.83562 49.5975 1.36279 48.0131 1.47894C47.8423 1.49278 46.646 1.99044 45.9673 1.63129C45.9193 1.88773 46.0247 2.10548 46.0049 2.33773C45.3345 2.43572 44.3044 2.13954 43.8515 2.10921C43.3994 2.079 43.0967 2.41211 42.9607 2.41537C42.4429 2.42384 42.5636 1.98573 42.524 1.97847C40.1109 1.5587 40.365 1.79209 38.908 2.44906C38.5429 2.61478 36.0658 2.13348 35.5647 2.65231C35.5421 2.44067 35.6802 2.25441 35.7198 2.05244C34.9757 1.998 34.2259 1.94209 33.4789 1.88764C33.6374 2.09091 33.8275 2.29439 33.9719 2.49887C32.4471 2.32224 31.1793 2.8012 29.9317 2.78562C29.2187 2.77594 29.3057 2.32689 28.8869 2.42489C28.805 2.44431 28.9435 2.74772 28.7005 2.77207C26.7172 2.96929 25.8482 2.64872 23.862 2.58823C22.9313 2.55933 22.1168 3.11084 20.7815 2.7479C20.6595 2.71392 19.3497 2.22421 18.5406 2.92588C18.2832 2.70446 18.0561 2.58815 17.8637 2.40182C16.2255 3.44358 16.6782 2.42261 14.4629 2.18062C13.3166 2.05487 9.46064 2.23742 8.21301 2.34872C7.46993 2.41653 7.48355 2.826 7.35092 2.84238C6.55879 2.93675 6.55824 2.53986 5.82568 2.60507C5.09292 2.67041 4.16716 3.11937 3.41458 3.07823C2.8381 3.04655 3.2925 2.55342 2.44113 2.72519C2.26474 2.76237 2.76871 3.18085 1.87057 3.01671C1.72912 2.9913 0.294245 2.53864 0 2.44064C0.755511 2.17808 2.94536 1.83554 3.76868 1.72907C17.9463 -0.11001 46.5057 -0.129148 61.6451 0.101949C63.0511 0.122583 63.9704 0.553335 64.8871 0.590855C65.8037 0.628363 65.0287 0.233714 65.8605 0.266383C66.6923 0.300265 67.2983 0.578742 68.0765 0.60294C73.3216 0.767484 78.6065 0.941644 83.8093 1.01787C85.1589 1.03723 86.2375 0.716469 87.4654 0.716469C87.9432 0.71666 87.9579 1.13027 88.2974 1.12664C91.9555 1.09393 95.3395 0.695906 98.9779 0.744302C100.489 0.764924 102.121 1.11336 103.617 1.14605C104.851 1.17387 106.129 0.935632 107.238 0.930708C107.84 0.927083 108.158 1.24209 108.376 1.2669C109.134 1.34918 108.869 0.964401 109.257 0.964401C110.326 0.9657 110.858 1.43026 111.859 1.39398C112.252 1.37946 112.202 1.08342 112.773 1.03728C113.497 0.979217 113.229 1.25232 113.746 1.26214C113.777 1.26335 113.676 1.05167 113.95 1.04314C115.715 0.987481 117.92 0.820605 119.623 0.835124C123.145 0.864171 126.622 1.27199 129.904 1.35186C130.733 1.37122 130.513 1.09527 130.776 1.08196C132.044 1.01913 132.496 1.34921 133.823 1.23064C134.044 1.21122 134.933 0.829161 135.781 0.925947C136.239 0.978053 136.76 1.21637 137.15 1.27203C137.54 1.32766 137.603 0.976729 138.072 0.976486C138.927 0.975276 138.678 1.21851 139.9 1.17498C140.393 1.15804 142.036 0.82556 143.304 0.850872C145.375 0.89201 147.941 1.19577 150.383 1.20061C151.22 1.20303 152.296 0.842416 153.595 0.838787C155.182 0.83397 158.107 0.915966 159.733 0.92082C160.565 0.92324 160.625 1.30098 160.724 1.31671C161.36 1.42178 161.104 0.999752 161.53 1.0164C162.116 1.03939 162.662 1.3507 163.194 1.37127C163.534 1.38443 163.587 1.07339 163.661 1.07097C166.383 0.968129 168.788 0.997179 171.492 0.963302C185.998 0.784232 200.643 0.384948 215.12 0.565219C216.334 0.579739 216.379 0.971892 217.446 0.9102C218.513 0.849703 219.543 0.00274706 220.42 0.938033C220.448 0.749282 220.446 0.614713 220.474 0.442902C222.678 0.709025 224.882 0.433564 227.038 0.399687C228.633 0.374292 230.048 0.404389 231.522 0.424957C232.829 0.444386 232.716 0.773249 233.847 0.344022C239.469 0.612629 245.151 0.547229 250.725 0.993698C252.032 0.290722 253.285 0.733633 255.093 0.837688C255.316 0.850849 255.076 0.594351 255.738 0.616124C256.57 0.642913 257 1.03479 258.4 1.01311C258.77 1.00706 261.515 0.572577 262.531 0.795207C263.547 1.0178 265.018 1.14845 266.073 1.36138C265.923 1.19323 265.734 1.03236 265.567 0.86662C266.093 0.837582 266.622 0.809596 267.148 0.780558C267.225 0.982618 267.301 1.18485 267.375 1.38812C267.68 1.19575 267.986 1.00574 268.294 0.810954C268.959 1.84896 268.278 1.5104 269.757 1.24786C270.498 1.11718 271.087 1.29854 271.848 1.19329C272.122 1.1546 272.297 0.848947 272.6 0.809855C273.341 0.715501 272.909 1.13619 273.367 1.13396C273.828 1.13033 274.49 0.668254 275.316 0.873944C274.454 1.69774 276.947 1.429 277.065 0.78898C277.362 0.787797 277.611 0.814399 277.939 0.796305C277.636 2.41279 279.19 1.26566 279.807 1.04424C280.423 0.823141 280.398 1.25747 280.543 1.24053C280.958 1.19332 280.655 1.01297 280.947 1.00688C282.876 0.970584 284.693 1.23574 286.597 1.25994C286.871 1.26338 286.628 1.01794 286.948 1.04204C287.267 1.06624 287.574 1.31057 288.046 1.29363C288.173 1.28934 288.213 1.07373 288.41 1.07353C292.549 1.08321 296.48 1.2669 300.701 1.29473C301.083 1.29715 301.383 0.913799 302.121 0.927046C302.859 0.940353 303.98 1.28631 304.896 1.31304C305.14 1.3203 305.206 1.00098 305.528 1.00945C306.626 1.03854 307.571 1.29853 308.711 1.34088C310.638 1.4122 312.655 1.21739 314.609 1.40606C314.98 1.44115 314.921 1.70747 315.455 1.78254C316.378 1.912 316.031 1.52364 316.217 1.47162C316.828 1.30356 317.02 1.81972 317.611 1.68696C317.702 1.66643 317.573 1.36032 317.654 1.35553C318.91 1.30229 318.976 2.01971 320.311 1.63495C321.499 2.04745 319.515 2.18797 319.312 2.40695C318.814 2.93923 320.129 3.56473 320.904 3.76563C321.572 3.93861 321.567 3.60721 321.833 3.60705C323.239 3.60584 325.333 3.54283 326.402 3.70007C327.05 3.79445 325.882 3.9325 326.213 4.04139C326.541 4.15014 326.754 3.90108 327.09 4.17323C327.427 4.44547 328.114 5.24662 327.984 5.62896ZM209.861 3.84546C212.017 2.53878 217.734 2.67528 220.804 2.7999C223.351 2.90396 225.546 3.91076 225.02 2.45163C222.267 2.44196 220.04 2.5883 217.129 2.54355C216.827 2.53871 215.021 2.40331 214.393 2.37911C214.039 2.36576 214.028 2.12473 213.547 2.12715C213.442 2.12838 212.862 2.44325 212.65 2.43478C211.923 2.40688 209.761 1.9235 209.459 1.93745C208.622 1.97857 208.944 2.3532 208.582 2.42123C207.369 2.64628 207.235 2.08362 206.032 2.26632C205.817 2.29899 205.104 2.78932 204.213 2.72519C203.851 2.69853 203.234 2.44539 202.957 2.45749C201.446 2.52284 199.76 2.85812 198.376 2.80247C197.242 2.75642 197.547 2.37792 196.947 2.32711C196.347 2.27767 195.623 2.71663 195.213 2.74204C194.557 2.78186 193.759 2.53259 193.555 2.53622C189.543 2.61003 185.976 2.8991 182.105 3.00315C184.734 3.17617 187.359 3.33497 189.97 3.51403C191.453 3.12203 190.715 3.48959 191.691 3.61181C192.463 3.70859 192.65 3.04459 193.665 3.11815C193.664 3.11815 193.664 3.11815 193.663 3.11815C194.186 3.15687 195.321 3.61669 196.435 3.42431C196.475 3.41698 196.574 3.07238 197.409 3.06029C199.285 3.03367 202.159 2.85689 204.269 2.93064C204.889 2.95242 204.763 3.31435 205.496 3.35912C206.03 3.3915 206.649 3.05686 207.486 3.1317C208.536 3.22728 209.039 3.80293 209.761 3.00315C209.82 3.2887 209.79 3.56718 209.861 3.84546ZM267.839 3.14964C267.986 3.18125 269.961 4.07397 269.375 3.12071C266.721 2.70691 263.852 2.91245 261.06 2.68015C262.013 3.62269 263.626 3.2512 265.584 3.18224C265.585 3.18224 265.586 3.18224 265.587 3.18224C265.679 3.17903 265.293 3.42536 265.818 3.38073C266.073 3.35895 267.049 2.98146 267.839 3.14964Z" fill="#161616"/>
</svg>
