<svg width="131" height="303" viewBox="0 0 131 303" fill="none" xmlns="http://www.w3.org/2000/svg">
<g clip-path="url(#clip0_221_1372)">
<path d="M-11.8544 72.8044C-11.6526 72.8087 -11.4521 72.7706 -11.2658 72.6924C-11.0795 72.6143 -10.9115 72.4978 -10.7724 72.3505C-7.51907 68.2054 -4.22814 64.0905 -0.944736 59.9757L4.26212 53.4479L6.86929 50.1802L8.07148 48.6673C8.50726 48.1152 8.92803 47.5554 9.40139 47.0335C9.72926 46.6984 9.91512 46.2482 9.91982 45.7779C9.9199 45.5445 9.87411 45.3134 9.78513 45.0979C9.69616 44.8824 9.56576 44.6868 9.40139 44.5222C9.242 44.3581 9.0514 44.228 8.84099 44.1396C8.63058 44.0512 8.40466 44.0064 8.17668 44.0079C7.86598 44.0057 7.56001 44.0847 7.28872 44.2371C7.01742 44.3896 6.79009 44.6103 6.6289 44.8777C6.55376 44.9988 6.47111 45.1122 6.38846 45.2257C-0.035594 53.5462 -6.43712 61.9045 -12.9288 70.1872L-13.1692 70.4973C-13.2997 70.728 -13.3695 70.9883 -13.3721 71.2538C-13.3721 71.655 -13.2138 72.0398 -12.932 72.3235C-12.6502 72.6072 -12.2679 72.7666 -11.8694 72.7666L-11.8544 72.8044Z" fill="white"/>
<path d="M-19.8487 162.394C-20.046 162.509 -20.2188 162.663 -20.3571 162.846C-20.4954 163.029 -20.5966 163.238 -20.6549 163.46C-20.7131 163.682 -20.7273 163.914 -20.6966 164.142C-20.666 164.37 -20.591 164.589 -20.4761 164.788C-20.3611 164.986 -20.2084 165.16 -20.0267 165.3C-19.845 165.439 -19.6378 165.541 -19.417 165.599C-19.1962 165.658 -18.9661 165.672 -18.7398 165.641C-18.5134 165.611 -18.2954 165.535 -18.098 165.419C1.43709 154.502 20.9898 143.615 40.56 132.758C45.1883 130.176 49.8141 127.586 54.4374 124.989C56.6264 123.754 58.8178 122.526 61.0118 121.306L64.4379 119.392L66.1209 118.446C66.4215 118.28 66.7145 118.098 67.0075 117.932C67.1926 117.819 67.3556 117.673 67.4884 117.501C67.5792 117.401 67.6597 117.292 67.7288 117.176C67.8832 116.906 67.966 116.601 67.9692 116.291C67.9644 115.84 67.7906 115.408 67.4827 115.081C67.1747 114.754 66.7554 114.557 66.3088 114.528H66.2186C65.8555 114.539 65.4991 114.629 65.1742 114.793L64.2726 115.277C63.7016 115.579 63.1456 115.905 62.5821 116.222L58.8779 118.287L51.695 122.296C46.7661 125.05 41.8373 127.803 36.9084 130.556C27.1008 136.048 17.2831 141.55 7.45542 147.061C-1.62592 152.175 -10.7273 157.285 -19.8487 162.394Z" fill="white"/>
<path d="M-78.6945 256.431C-78.862 256.432 -79.0286 256.455 -79.1904 256.499C-79.4415 256.569 -79.6765 256.688 -79.8819 256.849C-80.0874 257.011 -80.2592 257.211 -80.3876 257.44C-80.516 257.668 -80.5984 257.919 -80.6302 258.18C-80.662 258.44 -80.6425 258.704 -80.5729 258.957C-80.5079 259.207 -80.394 259.442 -80.2379 259.647C-80.0818 259.852 -79.8866 260.024 -79.6637 260.152C-69.5806 264.955 -59.535 269.849 -49.482 274.713C-39.4289 279.577 -29.2781 284.486 -19.1724 289.357L-8.2177 294.652L-2.47737 297.421L0.242516 298.729C1.29621 299.265 2.38285 299.732 3.49583 300.128C3.94395 300.253 4.41872 300.24 4.85945 300.091C5.30018 299.942 5.68683 299.665 5.96997 299.294C6.25311 298.922 6.41986 298.475 6.44891 298.008C6.47797 297.541 6.36801 297.075 6.13309 296.672C5.93404 296.322 5.64619 296.032 5.2991 295.832C5.02861 295.658 4.77315 295.499 4.49515 295.356L3.60104 294.917L1.79778 294.047L-2.14682 292.194L-9.66033 288.654L-24.6874 281.581C-34.8556 276.791 -45.0339 272.018 -55.2223 267.262C-62.6982 263.76 -70.1892 260.273 -77.6426 256.718C-77.9666 256.542 -78.3266 256.444 -78.6945 256.431Z" fill="white"/>
<path d="M43.4599 314.432L42.964 314.024L42.7235 313.819C42.4831 313.615 42.2427 313.419 41.9722 313.237L40.2892 312.375C39.2373 311.838 38.1553 311.369 37.0884 310.862L30.6042 307.791C26.036 305.643 21.4703 303.479 16.9071 301.301C16.5238 301.099 16.0998 300.988 15.6674 300.976C15.4693 300.978 15.2724 301.006 15.0813 301.059C14.4814 301.227 13.9696 301.623 13.6538 302.163C13.3356 302.723 13.2492 303.386 13.4133 304.009C13.494 304.308 13.6323 304.588 13.8205 304.833C14.0088 305.079 14.2432 305.284 14.5103 305.438C18.9683 307.561 23.4213 309.692 27.8693 311.83L34.3535 314.939L37.5317 316.452C38.1103 316.732 38.6888 316.974 39.2748 317.208C39.6503 317.399 40.046 317.546 40.4544 317.647L41.4387 317.836C41.874 317.957 42.3368 317.93 42.7552 317.759C43.1736 317.588 43.5243 317.283 43.7529 316.89C43.936 316.573 44.0343 316.214 44.0384 315.847C44.0395 315.584 43.9889 315.324 43.8896 315.081C43.7903 314.838 43.6442 314.618 43.4599 314.432Z" fill="white"/>
<path d="M65.3093 228.164L65.0237 228.065C64.7503 227.987 64.4665 227.951 64.1822 227.959H51.7248H37.9375H9.52142C9.15673 227.94 8.79192 227.995 8.44924 228.123C8.10656 228.25 7.79318 228.446 7.52821 228.699C7.26324 228.952 7.05227 229.256 6.90806 229.594C6.76386 229.932 6.68945 230.296 6.68945 230.664C6.68945 231.031 6.76386 231.395 6.90806 231.733C7.05227 232.071 7.26324 232.375 7.52821 232.628C7.79318 232.881 8.10656 233.077 8.44924 233.204C8.79192 233.332 9.15673 233.387 9.52142 233.368H64.295C64.6425 233.369 64.987 233.302 65.3093 233.171H69.3215C72.65 233.171 75.9784 233.171 79.2994 233.216L84.2058 233.254H86.6927H87.2412C87.8498 233.254 88.4584 233.254 89.067 233.292C89.4145 233.3 89.76 233.236 90.0828 233.107C90.4055 232.977 90.6989 232.782 90.9454 232.536C91.3008 232.167 91.5434 231.703 91.644 231.199C91.7447 230.695 91.6993 230.173 91.5131 229.694C91.327 229.216 91.0079 228.801 90.5942 228.501C90.1804 228.2 89.6894 228.025 89.1797 227.997H89.067C88.3833 228.035 87.6845 228.035 86.9933 228.035H84.4838L79.5849 228.08C76.259 228.111 72.9305 228.128 69.5995 228.133H65.3093V228.164Z" fill="white"/>
<path d="M33.4674 192.9L43.1223 190.525L48.7349 189.133C48.8435 189.125 48.9514 189.11 49.058 189.087C49.366 189.027 49.6741 188.944 49.9821 188.853C50.8161 188.649 51.6576 188.444 52.4916 188.225C52.8784 188.127 53.2369 187.939 53.5384 187.677C53.8398 187.414 54.0758 187.084 54.2273 186.712C54.4931 186.135 54.549 185.481 54.3851 184.867C54.3851 184.867 54.3851 184.829 54.3851 184.814V184.768V184.723V184.678V184.64C54.3495 184.552 54.3094 184.466 54.2648 184.383V184.345C54.0265 183.914 53.6792 183.553 53.258 183.301C52.845 183.06 52.3755 182.934 51.8981 182.938C51.6647 182.938 51.4323 182.968 51.2068 183.029C50.4555 183.203 49.7041 183.399 48.9077 183.588C48.5226 183.659 48.1415 183.75 47.7657 183.861C47.6239 183.896 47.4856 183.944 47.3524 184.004C43.3852 184.995 39.4106 185.948 35.4435 186.924L19.2293 190.933L-13.5522 199.034L-52.7276 208.61C-53.4041 208.798 -53.9789 209.248 -54.3256 209.863C-54.6722 210.477 -54.7622 211.205 -54.5759 211.886C-54.3896 212.567 -53.9422 213.145 -53.332 213.494C-52.7219 213.843 -51.9991 213.934 -51.3226 213.746C-29.4282 208.346 -7.53381 202.963 14.3606 197.597L33.4674 192.9Z" fill="white"/>
<path d="M116.702 172.121C117.114 172.012 117.489 171.795 117.791 171.493C118.02 171.264 118.201 170.992 118.325 170.692C118.449 170.392 118.512 170.071 118.512 169.746C118.512 169.421 118.449 169.1 118.325 168.8C118.201 168.5 118.02 168.228 117.791 167.999C117.563 167.771 117.292 167.591 116.994 167.47C116.696 167.349 116.377 167.29 116.056 167.295C115.836 167.295 115.617 167.318 115.402 167.363C112.141 168.12 108.903 168.952 105.634 169.776L95.5813 172.325C88.734 174.065 81.8792 175.777 75.0169 177.461C74.7243 177.542 74.4505 177.681 74.211 177.868C73.9715 178.056 73.771 178.289 73.621 178.554C73.318 179.09 73.2391 179.726 73.4015 180.321C73.5639 180.915 73.9543 181.421 74.487 181.726C75.0196 182.031 75.6507 182.11 76.2416 181.947C82.9987 180.283 89.7609 178.641 96.5281 177.023L106.626 174.602C109.985 173.793 113.388 173.044 116.694 172.129L116.702 172.121Z" fill="white"/>
<path d="M3.646 261.12C3.72182 260.851 3.72182 260.565 3.646 260.296C3.59559 260.101 3.5072 259.919 3.38593 259.759C3.26466 259.599 3.11295 259.465 2.93972 259.365C2.63918 259.229 2.33867 259.101 2.03062 258.98L1.3769 258.632L1.07639 258.397C0.736599 258.225 0.37112 258.11 -0.00555801 258.057L-1.50826 257.716L-5.09974 256.877C-7.44396 256.332 -9.78064 255.772 -12.1249 255.22L-26.2427 251.839C-35.6897 249.585 -45.1292 247.316 -54.5612 245.031C-54.7113 244.995 -54.8652 244.977 -55.0195 244.979C-55.4177 244.972 -55.8069 245.098 -56.1263 245.338C-56.4457 245.577 -56.6774 245.916 -56.7852 246.302C-56.8504 246.535 -56.8695 246.778 -56.8414 247.018C-56.8133 247.258 -56.7385 247.489 -56.6212 247.7C-56.504 247.911 -56.3467 248.096 -56.1582 248.246C-55.9697 248.395 -55.7539 248.506 -55.5229 248.571C-46.2012 250.841 -36.8844 253.13 -27.5726 255.44C-22.8692 256.605 -18.1682 257.769 -13.4698 258.934C-11.1406 259.517 -8.80388 260.092 -6.4822 260.682L-2.90577 261.589L-1.35046 261.998L-0.486435 262.225C-0.132622 262.304 0.23418 262.304 0.58799 262.225H1.33934L0.903591 262.164C1.33186 262.225 1.75258 262.27 2.18085 262.293C2.52079 262.293 2.85077 262.177 3.11688 261.964C3.38299 261.751 3.56951 261.454 3.646 261.12Z" fill="white"/>
<path d="M100.15 282.784C99.8569 282.636 99.5559 282.504 99.2481 282.391C98.6996 282.224 98.1511 282.081 97.5951 281.929C96.3629 281.589 95.1157 281.286 93.8384 280.984C91.3339 280.369 88.8094 279.766 86.2648 279.176L70.5766 275.447C60.0577 272.926 49.5612 270.404 39.0874 267.883C33.6927 266.592 28.3005 265.286 22.9108 263.965C22.771 263.928 22.627 263.911 22.4826 263.912C22.0611 263.895 21.6486 264.037 21.3247 264.309C21.0008 264.581 20.7884 264.964 20.7286 265.384C20.6689 265.804 20.7659 266.232 21.001 266.585C21.2361 266.937 21.5926 267.189 22.0017 267.293C42.9944 272.406 63.9697 277.585 84.9274 282.829C87.4319 283.465 89.9514 284.088 92.486 284.698C93.7407 285.008 94.988 285.326 96.2427 285.59L97.9558 285.953C98.3248 286.076 98.7147 286.123 99.102 286.091C99.4893 286.058 99.8662 285.947 100.21 285.764L100.623 285.537C100.821 285.337 100.965 285.09 101.044 284.819C101.148 284.394 101.089 283.946 100.879 283.563C100.73 283.228 100.473 282.954 100.15 282.784Z" fill="white"/>
<path d="M131.301 291.589C131.217 291.301 131.029 291.056 130.775 290.9L130.505 290.711L130.106 290.545L130.414 290.673L129.663 290.348C129.375 290.22 129.076 290.119 128.769 290.046C128.153 289.894 127.522 289.773 126.898 289.63C125.598 289.327 124.298 289.032 123.006 288.714L114.674 286.687C114.558 286.657 114.44 286.642 114.32 286.642C113.981 286.633 113.651 286.75 113.392 286.971C113.133 287.192 112.964 287.501 112.917 287.839C112.87 288.177 112.947 288.521 113.135 288.805C113.324 289.089 113.609 289.294 113.937 289.38L122.51 291.46C123.878 291.793 125.238 292.148 126.598 292.496C127.191 292.64 127.77 292.822 128.371 292.95C128.694 293.007 129.02 293.045 129.348 293.064H129.753C129.899 293.067 130.045 293.054 130.189 293.026C130.393 293.027 130.593 292.972 130.768 292.867C131.026 292.716 131.214 292.469 131.294 292.179C131.345 291.986 131.347 291.783 131.301 291.589Z" fill="white"/>
</g>
<defs>
<clipPath id="clip0_221_1372">
<rect width="131" height="303" fill="white"/>
</clipPath>
</defs>
</svg>
