<svg width="186" height="43" viewBox="0 0 186 43" fill="none" xmlns="http://www.w3.org/2000/svg">
<path d="M23.9729 35.3867C31.8997 35.3867 38.3257 29.0067 38.3257 21.1366C38.3257 13.2665 31.8997 6.88647 23.9729 6.88647C16.0461 6.88647 9.62012 13.2665 9.62012 21.1366C9.62012 29.0067 16.0461 35.3867 23.9729 35.3867Z" fill="#DADADA"/>
<path d="M44.6768 23.3212V13.1923H49.2276V21.9806C49.2276 23.7185 49.4277 25.4066 51.7281 25.4066C54.0286 25.4066 54.2286 23.7185 54.2286 21.9806V13.1923H58.7795V23.2716C58.7795 27.1941 56.279 29.3291 51.7281 29.3291C47.0772 29.3788 44.6768 27.1941 44.6768 23.3212Z" fill="#DADADA"/>
<path d="M59.9805 27.0452L62.1809 24.0164C62.9811 25.0094 64.3813 25.8535 65.9316 25.8535C67.1319 25.8535 67.832 25.357 67.832 24.4136C67.832 23.3213 66.8318 22.9737 65.0815 22.4772C62.781 21.7821 60.7306 20.5904 60.7306 17.8596C60.7306 14.8805 63.2311 12.8447 66.7318 12.8447C69.1823 12.8447 70.9826 13.5895 72.1828 14.6818L70.1324 17.7106C69.4823 16.9658 68.3821 16.3204 66.9818 16.3204C65.7816 16.3204 65.2815 16.8169 65.2815 17.4127C65.2815 18.4057 66.4817 18.654 67.782 19.1009C70.3825 19.8953 72.3829 21.0869 72.3829 24.0164C72.3829 27.0452 70.1825 29.3292 66.1817 29.3292C63.2311 29.3788 60.9807 28.1375 59.9805 27.0452Z" fill="#DADADA"/>
<path d="M78.4844 13.1923H83.4853L89.4365 29.0312H84.6856L83.9354 26.7472H77.9343L77.1841 29.0312H72.5332C72.5832 29.0312 78.4844 13.1923 78.4844 13.1923ZM82.7852 23.1723L81.535 19.3491C81.2849 18.6043 81.0849 17.6609 80.9848 16.9658H80.8348C80.7348 17.6609 80.5348 18.6043 80.2847 19.3491L79.0345 23.1723H82.7852Z" fill="#DADADA"/>
<path d="M96.0379 16.8665H92.0872V13.1923H104.54V16.8665H100.589V29.0312H96.0379V16.8665Z" fill="#DADADA"/>
<path d="M104.839 21.1366C104.839 17.2141 107.639 12.8943 113.591 12.8943C119.542 12.8943 122.342 17.2637 122.342 21.1366C122.342 25.0094 119.542 29.3291 113.591 29.3291C107.639 29.3788 104.839 25.0591 104.839 21.1366ZM117.691 21.1366C117.691 18.3064 115.841 16.8168 113.591 16.8168C111.39 16.8168 109.54 18.3064 109.54 21.1366C109.54 23.9667 111.39 25.4066 113.591 25.4066C115.791 25.4066 117.691 23.9667 117.691 21.1366Z" fill="#DADADA"/>
<path d="M123.993 13.1923H129.894C135.545 13.1923 138.746 16.1714 138.746 21.1366C138.746 26.0024 135.445 29.0809 129.894 29.0809H123.993V13.1923ZM128.594 25.4066H129.594C132.545 25.4066 134.095 24.0164 134.095 21.1366C134.095 18.2568 132.545 16.8665 129.594 16.8665H128.594V25.4066Z" fill="#DADADA"/>
<path d="M144.047 13.1923H149.048L154.999 29.0312H150.248L149.498 26.7472H143.497L142.747 29.0312H138.096C138.146 29.0312 144.047 13.1923 144.047 13.1923ZM148.348 23.1723L147.097 19.3491C146.847 18.6043 146.647 17.6609 146.547 16.9658H146.397C146.297 17.6609 146.097 18.6043 145.847 19.3491L144.597 23.1723H148.348Z" fill="#DADADA"/>
<path d="M157.199 23.4206L151.248 13.2419H156.249L158.399 17.1644C158.85 18.0085 159.5 19.2498 159.65 20.0939H159.75C159.9 19.2498 160.5 18.0085 161 17.1644L163.15 13.2419H168.001L162.05 23.4206V29.0809H157.249V23.4206H157.199Z" fill="#DADADA"/>
</svg>
