<svg width="113" height="56" viewBox="0 0 113 56" fill="none" xmlns="http://www.w3.org/2000/svg">
<path d="M106.812 27.7459L105.88 27.9975C104.994 24.978 103.508 23.6844 101.411 23.6844C99.9386 23.6844 98.8948 24.6536 98.8948 26.2007C98.8948 27.6732 100.106 28.4653 103.4 29.7952C106.432 30.9099 107.689 32.2743 107.689 34.6601C107.689 38.29 104.837 40.5668 100.153 40.5668C97.9004 40.5668 95.3487 40.0636 93.9107 39.4885L93.7308 34.4448L94.6162 34.2649C95.9461 37.716 97.6478 39.0216 99.8631 39.0216C101.78 39.0216 102.787 37.6917 102.787 36.3255C102.787 34.9592 102.008 34.1689 99.0122 33.0916C96.1604 32.1568 94.208 30.935 94.208 27.9034C94.208 24.9211 96.8314 22.3918 101.291 22.3918C103.4 22.3918 105.317 22.7515 106.575 23.3265L106.812 27.7459ZM87.5202 29.3274C87.6283 26.9556 87.1474 23.5288 85.1959 23.5288C83.195 23.5288 82.0925 26.7282 82.0571 29.4719L87.5202 29.3274ZM85.675 22.3787C90.5864 22.3787 92.9591 25.9733 92.9955 30.6937H81.9387C81.9015 34.8753 84.1195 38.0375 88.2649 38.0375C90.0729 38.0375 91.1167 37.5342 92.2182 36.7439L92.7336 37.3189C91.5221 38.9722 89.0058 40.5528 85.6507 40.5528C80.2593 40.5528 76.5213 36.8511 76.5213 31.6265C76.5091 26.9062 79.5762 22.3769 85.675 22.3769M69.7403 31.1233C69.6322 27.3955 68.2678 24.4262 65.6425 24.4262C65.0181 24.4262 64.54 24.5343 63.7972 24.786L64.0116 39.1512C64.2753 39.2593 64.897 39.331 65.3415 39.331C67.8932 39.331 69.7385 35.7244 69.7385 31.1242M75.2137 30.8446C75.2137 36.7514 71.4859 40.5612 65.1616 40.5612C62.9091 40.5612 60.5727 40.2015 58.5485 39.7346C58.7283 37.3627 58.7283 22.6732 58.5485 19.9053C58.3686 18.4673 57.9613 17.7842 56.8467 17.6407L56.1039 17.5689V16.91L63.9044 15.472C63.8671 16.6835 63.7963 19.9053 63.7963 23.6788C65.1626 22.9957 66.4198 22.6005 68.1206 22.6005C72.1821 22.6005 75.2035 26.0516 75.2035 30.8437M55.3528 27.6359C52.9446 26.0544 50.3575 26.7375 49.8412 27.6359C49.6138 30.4038 49.6613 34.6573 49.8785 36.8492C49.9866 38.2872 50.3938 38.8977 51.5075 39.0058L52.98 39.1493V40.0841H41.9615V39.1493L42.8123 39.0058C43.8785 38.8977 44.2504 38.2882 44.3221 36.8492C44.5859 34.5128 44.6576 29.6126 44.3221 26.9164C44.2504 25.3712 43.8785 24.7953 42.8123 24.6518L41.9615 24.5437V23.8969L49.8328 22.3871L49.7247 26.4132C51.57 22.2436 55.2363 21.7403 57.2251 22.855L55.3528 27.6359ZM29.5217 31.4942C29.5217 35.8912 30.7081 39.4857 33.1041 39.4857C35.6922 39.4857 36.435 35.9629 36.435 31.4942C36.435 27.0255 35.2849 23.539 32.8525 23.539C30.243 23.539 29.5217 26.9537 29.5217 31.4942ZM42.0062 31.4224C42.0062 36.4662 38.6754 40.5556 32.7332 40.5556C26.8861 40.5556 23.9393 36.6619 23.9393 31.5576C23.9393 26.5492 27.2701 22.3797 33.2122 22.3797C39.0594 22.3797 42.0062 26.2976 42.0062 31.4131M26.7035 22.7385L25.4919 23.0982C24.4612 19.5633 22.6401 17.5512 19.5013 17.5512H15.4035C15.1761 19.8997 15.068 23.5297 15.1761 27.4486L17.9067 27.3051C19.752 27.3051 20.5302 25.9751 20.9822 24.0432H22.0129V32.2146H20.9645C20.5208 30.2389 19.7529 28.8968 17.889 28.7878L15.1584 28.7505C15.1584 31.662 15.1956 34.154 15.3858 35.6638C15.5656 37.8203 16.1649 38.8026 17.7464 39.0067L19.2319 39.1502V40.085H5.85742V39.1502L6.97204 39.0067C8.51723 38.7924 9.15283 37.8203 9.33269 35.6638C9.63092 32.141 9.70548 24.6173 9.33269 20.4356C9.15283 18.1989 8.51816 17.3089 6.97204 17.129L5.85742 16.9491V15.9799H26.6774L26.7035 22.7385Z" fill="#DADADA"/>
</svg>
