<svg width="193" height="51" viewBox="0 0 193 51" fill="none" xmlns="http://www.w3.org/2000/svg">
<path d="M22.32 32.9927H14.94L15.3 30.1127L14.58 27.2327L14.22 26.8727H7.38L7.02 27.2327L6.3 30.1127L6.66 32.9927H0L1.44 30.1127L6.84 10.1327L6.3 7.79274H16.02L15.48 10.1327L20.88 30.1127L22.32 32.9927ZM13.32 22.1927L10.98 12.4727L10.8 11.3927L10.62 12.4727L8.28 22.1927L8.64 22.5527H12.96L13.32 22.1927ZM38.1642 28.3127L33.4842 32.9927H23.5842L21.6042 27.0527L25.2762 28.3127H30.2442L31.6842 27.5927L32.4042 26.1527V23.8127L31.1442 22.5527L25.7442 21.2927L22.3242 17.8727V12.4727L27.0042 7.79274H36.3642L38.1642 13.1927L34.9242 12.1127H30.2442L28.8042 12.8327L28.0842 14.2727V15.7127L29.3442 16.9727L34.7442 18.2327L38.1642 21.6527V28.3127ZM62.9888 28.3127L58.3088 32.9927H48.4088L46.4288 27.0527L50.1008 28.3127H55.0688L56.5088 27.5927L57.2288 26.1527V23.8127L55.9688 22.5527L50.5688 21.2927L47.1488 17.8727V12.4727L51.8288 7.79274H61.1888L62.9888 13.1927L59.7488 12.1127H55.0688L53.6288 12.8327L52.9088 14.2727V15.7127L54.1688 16.9727L59.5688 18.2327L62.9888 21.6527V28.3127ZM82.5933 27.0527L80.6133 32.9927H65.8533L66.5733 30.1127V10.6727L65.8533 7.79274H80.2533L82.0533 13.1927L78.8133 12.1127H72.3333L71.9733 12.4727V16.7927L72.3333 17.1527H75.3933L78.0933 16.2527V22.3727L75.3933 21.4727H72.3333L71.9733 21.8327V27.7727L72.5133 28.3127H78.8133L82.5933 27.0527ZM100.226 27.0527L98.2462 32.9927H83.4862L84.2062 30.1127V10.6727L83.4862 7.79274H97.8862L99.6862 13.1927L96.4462 12.1127H89.9662L89.6062 12.4727V16.7927L89.9662 17.1527H93.0262L95.7262 16.2527V22.3727L93.0262 21.4727H89.9662L89.6062 21.8327V27.7727L90.1462 28.3127H96.4462L100.226 27.0527ZM120.199 7.79274L119.479 10.6727V32.9927H114.799L107.059 17.5127L106.339 15.7127L106.519 17.5127V30.1127L107.239 32.9927H101.119L101.839 30.1127V10.6727L100.939 7.79274H107.959L114.259 20.3927L114.979 22.1927L114.799 20.3927V10.6727L114.079 7.79274H120.199ZM149.375 28.3127L144.695 32.9927H135.335L130.655 28.3127V12.4727L135.335 7.79274H144.695L149.375 12.4727V28.3127ZM143.615 26.1527V14.2727L142.895 12.8327L141.455 12.1127H138.575L137.135 12.8327L136.415 14.2727V26.1527L137.135 27.5927L138.575 28.3127H141.455L142.895 27.5927L143.615 26.1527ZM172.043 7.79274L171.323 10.6727V32.9927H166.643L158.903 17.5127L158.183 15.7127L158.363 17.5127V30.1127L159.083 32.9927H152.963L153.683 30.1127V10.6727L152.783 7.79274H159.803L166.103 20.3927L166.823 22.1927L166.643 20.3927V10.6727L165.923 7.79274H172.043ZM181.419 20.0327L179.979 21.4727H176.019L174.579 20.0327V16.0727L176.019 14.6327H179.979L181.419 16.0727V20.0327ZM181.419 31.5527L179.979 32.9927H176.019L174.579 31.5527V27.5927L176.019 26.1527H179.979L181.419 27.5927V31.5527Z" fill="#F8F8F8"/>
<path d="M192.99 50.5615C191.712 50.8809 190.435 51.0174 189.12 50.8782C188.82 50.8468 188.849 50.5999 188.725 50.56C188.499 50.4863 188.119 50.7526 188.066 50.7526C187.735 50.756 187.864 50.3239 187.82 50.3073C187.324 50.1319 187.467 50.624 186.992 50.6713C186.375 50.733 185.582 50.645 184.838 50.6208C184.577 50.6111 184.693 50.2822 184.129 50.3099C183.73 50.3292 182.504 50.7041 181.94 50.3036C181.936 50.1524 182.008 49.9854 182.037 49.8294C181.228 50.4597 180.939 50.432 179.792 50.2784C179.61 50.2542 179.439 50.5131 179.119 50.4175C178.8 50.3219 178.786 49.9227 178.144 49.9275C177.916 49.9302 177.777 50.2117 177.428 50.2238C176.434 50.2589 174.541 49.9092 173.725 49.8971C172.119 49.8729 171.245 50.3534 169.818 50.1864C169.708 50.1743 169.95 49.8658 169.748 49.8598C169.545 49.8537 169.334 50.2625 169.284 50.2721C168.744 50.3773 167.605 49.8298 167.305 49.896C166.575 50.0582 167.294 50.2383 166.283 50.3157C165.321 50.3894 163.993 49.8573 163.039 49.7532C161.934 49.6323 161.577 50.4053 160.745 49.5983C157.822 49.6455 154.887 49.6744 151.96 49.7155C151.968 49.5546 151.978 49.3937 151.988 49.2328C151.757 49.3441 151.525 49.4556 151.294 49.5657C151.329 49.446 151.362 49.3261 151.397 49.2075C150.31 49.6696 149.341 49.908 148.071 49.781C148.046 49.7786 148.112 49.4579 148.091 49.4496C147.805 49.3891 147.485 49.6359 147.233 49.5778C146.626 49.4386 145.594 48.7392 146.048 49.5946C144.631 49.418 142.967 49.7072 141.617 49.5415C141.032 49.4702 140.857 48.9632 140.578 48.934C140.298 48.905 140.441 49.3406 140.341 49.3573C139.745 49.4541 138.765 49.4361 138.661 48.9486C138.542 49.1434 138.415 49.3405 138.293 49.5364C138.364 48.9959 136.523 49.2193 136.04 49.2061C135.951 49.2037 135.939 48.9667 135.872 48.9691C135.13 48.9995 134.949 49.3709 134.313 49.4943C134.09 49.5378 134.436 49.1203 133.863 49.3006C133.813 49.3164 133.84 49.6915 133.156 49.6891C132.064 49.6855 129.974 49.8343 128.674 49.6492C128.568 49.6347 128.892 49.2257 128.405 49.3211C128.228 49.3549 128.313 49.6453 127.885 49.6477C126.227 49.6598 124.459 49.326 122.767 49.6031C122.829 49.2752 123.432 48.9074 122.526 49.1131C122.381 49.147 122.489 49.4398 122.424 49.4507C121.898 49.5353 121.442 49.3262 120.873 49.4386C120.705 49.4725 120.663 49.7024 120.453 49.7569C120.144 49.8379 120.007 49.5101 119.647 49.6492C119.085 49.8682 118.998 50.179 118.301 49.5694C114.349 49.6081 110.415 49.7797 106.476 49.5111C105.337 49.6854 104.287 49.88 103.1 49.9466C102.75 49.9659 102.683 49.5498 102.126 49.6877C102.001 49.7179 101.11 50.1645 100.98 49.3236C100.732 49.3962 100.575 49.3986 100.362 49.4434C100.524 49.5668 100.69 49.6916 100.845 49.8162C99.9463 49.6819 99.2122 49.9783 98.4164 50.1187C97.8306 50.2215 98.2466 49.8609 97.8871 49.8971C97.5275 49.9322 97.364 50.0134 96.9145 49.5814C96.5616 50.0797 96.3271 49.7303 95.6762 49.717C95.6063 49.7157 95.202 49.909 94.8641 49.8704C94.6211 49.8426 94.5491 49.5318 94.1632 49.58C94.0999 49.5872 93.284 49.9723 93.0243 50.0074C92.6197 50.063 91.9768 49.6647 91.8985 49.6598C90.7617 49.5897 90.3234 49.983 89.5161 49.3357C89.3529 49.7204 88.6792 49.9455 88.1349 49.9081C87.4473 49.8609 86.0687 49.0744 85.8805 49.9056C85.0849 49.5354 85.1712 49.7638 84.2277 49.7712C83.3688 49.7784 81.0947 49.4605 80.3985 49.5064C79.7026 49.5511 80.0417 50.0134 79.7654 50.0751C79.313 50.1777 79.5574 49.8366 79.2478 49.8415C78.3721 49.856 77.6112 49.9212 76.7755 50.07C76.7306 49.8305 76.6822 49.5898 76.6356 49.3504C76.5924 49.4302 76.5493 49.5101 76.506 49.5899C76.3262 49.5875 76.1248 49.5924 75.9583 49.5851C77.363 50.6364 74.6015 49.5074 73.7724 49.4807C73.0732 49.459 71.9093 49.9575 71.1418 50.0652C70.9556 50.0917 71.0836 49.8329 71.0454 49.8389C70.5959 49.9127 70.5277 50.0894 69.9233 50.0652C69.6038 50.0519 69.2775 49.7279 68.9662 49.7217C66.6805 49.6782 64.4746 50.0038 62.2039 50.0389C61.8177 50.0449 61.4845 49.6493 61.1599 49.6408C60.6955 49.6287 60.4025 49.9526 59.9665 49.9576C59.532 49.9624 58.9058 49.5753 58.6111 49.6346C58.3164 49.6926 58.8206 50.0677 58.2812 49.9649C58.0335 49.9176 58.471 49.6383 58.1649 49.6298C57.2093 49.6032 55.8609 49.9491 54.8437 49.614C54.8887 49.6975 54.95 49.7726 55.005 49.8525C53.9212 49.8198 52.9638 49.6189 51.8451 49.5899C51.4538 49.5791 50.7483 49.8243 50.3638 49.8232C49.9792 49.8219 49.8043 49.5559 49.4965 49.5485C49.3699 49.5449 49.4194 49.7833 49.3345 49.7785C48.2726 49.7155 47.6899 49.291 46.578 49.3394C42.5042 49.516 38.3036 49.6686 34.1665 49.8283C34.0002 49.8346 33.8882 50.1453 33.6453 50.1912C33.2711 50.2623 33.2527 49.9877 33.2028 49.9781C32.8766 49.9176 33.0097 50.1718 32.5719 50.1718C31.6079 50.1718 30.053 49.9466 29.0924 49.966C26.8783 50.0107 25.017 50.2528 22.8462 50.3751C22.6897 50.3847 22.7958 50.017 22.5244 50.0121C20.6119 49.9735 20.207 50.3256 17.8265 50.2264C15.4458 50.1271 10.9524 49.9044 8.1656 49.8536C8.1656 49.8527 8.1656 49.8518 8.1656 49.851C7.28836 50.5309 6.15331 50.3618 5.21109 49.8477C10.645 48.1707 15.8441 48.917 21.6476 48.8505C27.7473 48.7815 34.2499 47.563 40.4312 47.7287C41.0122 47.7445 41.2456 48.1317 41.735 48.0506C41.8178 48.0369 41.6036 47.7385 41.858 47.7082C45.354 47.3017 49.0815 47.9819 52.5143 47.7932C53.4399 47.7424 53.585 47.4096 54.3991 47.3237C54.256 47.4809 54.1624 47.6454 54.0376 47.8038C57.7534 48.295 61.4745 48.0761 65.2387 48.1462C65.4084 48.1499 65.4301 48.4754 65.6083 48.4875C65.9644 48.5129 66.3057 48.1548 66.6169 48.1426C67.0231 48.1268 67.0934 48.3858 67.468 48.3689C67.6508 48.3602 67.5961 48.1113 67.9937 48.1536C68.027 48.1572 68.0487 48.4183 68.3132 48.3846C69.0373 48.2915 70.5173 48.0724 71.1168 48.0071C71.8824 47.9236 72.4968 48.317 72.7866 48.3425C73.5689 48.4115 73.5526 48.0087 74.2149 48.0085C78.9296 48.0061 83.4368 48.4644 88.263 48.4608C88.5662 48.4606 89.6876 48.0122 90.2486 48.0301C90.4367 48.0374 91.4199 48.1558 91.5672 48.1656C92.1649 48.2031 92.6813 48.4743 93.011 48.5311C93.6502 48.6423 94.3645 48.219 94.7124 48.1766C95.3234 48.1016 96.4083 48.1573 96.6649 48.1682C97.2843 48.1948 97.0796 48.7185 97.5241 48.5963C97.6554 48.5598 97.5179 48.1583 97.9806 48.1583C98.3683 48.1597 98.5251 48.462 98.7897 48.5165C99.0544 48.5706 99.5399 48.103 99.7049 48.1147C100.567 48.1801 100.949 48.4865 101.888 48.5022C102.667 48.5142 106.271 48.2999 106.571 48.1898C107.913 47.6978 105.678 47.9186 105.552 47.902C104.871 47.8064 104.971 47.6176 104.292 47.9781C103.684 46.8662 101.566 48.5975 101.023 47.2786C100.462 48.1571 99.9911 47.7142 99.4001 47.5376C98.5832 47.2934 99.2053 47.8053 98.6093 47.8089C98.3744 47.8099 97.6936 47.4109 97.3408 47.4665C96.988 47.5223 96.8395 47.8283 96.3668 47.8452C95.5229 47.8766 94.8436 47.7338 94.1345 47.3673C94.0047 47.5294 93.8835 47.6915 93.7553 47.8536C93.2659 47.6794 92.7745 47.5062 92.2851 47.3332C92.3633 47.4748 92.4417 47.6176 92.5199 47.7591C92.3767 47.7797 92.2332 47.7991 92.09 47.8185C91.6139 47.6055 91.1592 47.4084 90.6698 47.1882C89.3399 48.0071 89.7258 47.2983 88.9867 47.1919C88.2478 47.0855 87.8201 47.5595 87.2492 47.5621C86.4801 47.5657 86.1269 47.6249 85.3512 47.591C84.9017 47.5717 84.1392 47.1142 84.7651 47.839C83.3617 47.897 81.4403 48.0993 80.185 47.8053C79.8144 47.7195 80.3086 47.4912 80.2454 47.4629C79.9308 47.3286 79.6658 47.6986 79.3413 47.6456C78.802 47.5573 77.7516 47.2692 77.3269 47.2014C76.716 47.1034 75.7554 47.5827 75.6572 47.6178C75.108 47.8125 74.9611 47.4145 74.7847 47.442C73.7809 47.6017 73.5593 47.7688 73.243 46.9293C72.9832 47.2923 71.8945 47.903 71.6314 47.2922C71.6247 47.8438 70.7209 47.7508 70.1648 47.8888C70.0616 47.7291 69.9566 47.5703 69.8534 47.4094C68.6931 48.3967 66.3824 47.6795 64.8558 47.5621C64.8175 47.5597 64.7491 47.9731 64.5194 47.88C64.5048 47.8723 64.5285 47.6865 64.3743 47.6624C63.8666 47.585 61.9292 47.1208 61.7062 47.1168C60.8855 47.101 60.742 47.4096 60.2426 47.4387C59.5851 47.4774 59.49 47.1989 58.8643 47.2387C58.5714 47.2569 58.3048 47.6234 57.8439 47.5716C57.571 47.5414 57.544 47.2535 57.3278 47.2303C56.5587 47.1468 55.9938 47.3285 55.3113 46.9534C55.1331 47.8692 54.8069 47.1942 54.469 47.1252C53.0972 46.8433 51.3876 47.2303 50.2106 47.1468C46.5381 46.8843 43.2818 46.3195 39.6942 46.1924C39.1115 46.1719 38.9712 46.6316 38.3601 46.6026C38.0855 46.5891 37.8024 46.2562 37.353 46.2514C36.9918 46.2466 36.4743 46.4159 36.0233 46.4147C35.9034 46.4147 35.8928 46.1026 35.7163 46.1001C34.3779 46.082 33.071 46.3037 31.7193 46.4561C31.2183 46.5128 30.9085 46.0992 30.9934 46.819C30.8019 46.6424 30.6158 46.4886 30.436 46.3144C29.7468 46.7681 29.1839 46.2953 28.2516 46.4114C28.1511 46.4253 27.4472 46.9229 27.0479 46.5638C27.0196 46.8202 27.0816 47.038 27.0699 47.2702C26.6754 47.3682 26.0694 47.072 25.8029 47.0417C25.5369 47.0115 25.3588 47.3446 25.2787 47.3479C24.974 47.3563 25.045 46.9182 25.0217 46.911C23.6019 46.4912 23.7513 46.7246 22.894 47.3816C22.6792 47.5473 21.2217 47.066 20.9268 47.5848C20.9135 47.3732 20.9947 47.1869 21.0181 46.9849C20.5802 46.9305 20.139 46.8746 19.6995 46.8201C19.7927 47.0234 19.9047 47.2269 19.9896 47.4314C19.0924 47.2547 18.3463 47.7337 17.6123 47.7181C17.1927 47.7084 17.2439 47.2594 16.9975 47.3574C16.9493 47.3768 17.0308 47.6802 16.8878 47.7046C15.7208 47.9018 15.2094 47.5812 14.0408 47.5207C13.4932 47.4918 13.0138 48.0433 12.2282 47.6804C12.1564 47.6464 11.3856 47.1567 10.9096 47.8584C10.7581 47.637 10.6245 47.5206 10.5112 47.3343C9.54732 48.3761 9.81372 47.3551 8.51016 47.1131C7.83562 46.9874 5.56679 47.1699 4.83266 47.2812C4.39541 47.349 4.40343 47.7585 4.32539 47.7749C3.85932 47.8692 3.85895 47.4724 3.42792 47.5376C2.99674 47.6029 2.45205 48.0519 2.00919 48.0107C1.66997 47.979 1.93739 47.4859 1.4364 47.6577C1.33263 47.6949 1.62909 48.1133 1.10067 47.9492C1.01744 47.9238 0.173138 47.4711 0 47.3731C0.444554 47.1106 1.73309 46.768 2.21754 46.6616C10.5599 44.8225 27.3646 44.8033 36.2729 45.0344C37.1002 45.0551 37.6412 45.4858 38.1805 45.5233C38.7199 45.5609 38.2638 45.1662 38.7533 45.1989C39.2427 45.2328 39.5994 45.5112 40.0572 45.5354C43.1436 45.7 46.2532 45.8741 49.3146 45.9504C50.1087 45.9697 50.7434 45.649 51.4659 45.649C51.747 45.6492 51.7558 46.0628 51.9555 46.0591C54.1079 46.0264 56.0992 45.6284 58.24 45.6768C59.1289 45.6974 60.0894 46.0459 60.97 46.0785C61.6957 46.1064 62.4481 45.8681 63.1007 45.8632C63.4549 45.8596 63.6417 46.1746 63.7699 46.1994C64.216 46.2817 64.0601 45.8969 64.2882 45.8969C64.9174 45.8982 65.2303 46.3628 65.8196 46.3265C66.0509 46.312 66.0211 46.0159 66.357 45.9698C66.7831 45.9117 66.6255 46.1848 66.9298 46.1946C66.9481 46.1958 66.8884 45.9842 67.0498 45.9756C68.0887 45.92 69.3857 45.7531 70.3879 45.7676C72.4605 45.7967 74.5065 46.2045 76.4376 46.2844C76.9254 46.3037 76.7959 46.0278 76.9507 46.0145C77.6964 45.9516 77.9628 46.2817 78.7435 46.1631C78.8734 46.1437 79.3963 45.7617 79.8957 45.8584C80.1653 45.9105 80.4714 46.1489 80.7011 46.2045C80.9308 46.2602 80.9676 45.9092 81.2437 45.909C81.7465 45.9078 81.6003 46.151 82.3194 46.1075C82.609 46.0905 83.5761 45.7581 84.3219 45.7834C85.5406 45.8245 87.0508 46.1283 88.4876 46.1331C88.9803 46.1355 89.6133 45.7749 90.3775 45.7713C91.3114 45.7665 93.0323 45.8485 93.9895 45.8533C94.4789 45.8557 94.5143 46.2335 94.5726 46.2492C94.9468 46.3543 94.7957 45.9322 95.0467 45.9489C95.3913 45.9719 95.7129 46.2832 96.0259 46.3038C96.2255 46.3169 96.2572 46.0059 96.3005 46.0035C97.902 45.9006 99.3171 45.9297 100.909 45.8958C109.444 45.7167 118.061 45.3174 126.58 45.4977C127.294 45.5122 127.321 45.9044 127.948 45.8427C128.576 45.7822 129.182 44.9352 129.698 45.8705C129.715 45.6818 129.713 45.5472 129.73 45.3754C131.027 45.6415 132.324 45.3661 133.592 45.3322C134.531 45.3068 135.364 45.3369 136.231 45.3575C137 45.3769 136.933 45.7057 137.599 45.2765C140.907 45.5451 144.25 45.4797 147.53 45.9262C148.299 45.2232 149.036 45.6661 150.1 45.7702C150.232 45.7833 150.091 45.5268 150.48 45.5486C150.969 45.5754 151.222 45.9673 152.046 45.9456C152.264 45.9396 153.88 45.5051 154.477 45.7277C155.075 45.9503 155.941 46.0809 156.561 46.2939C156.473 46.1257 156.362 45.9649 156.263 45.7991C156.573 45.7701 156.884 45.7421 157.194 45.7131C157.239 45.9151 157.284 46.1173 157.327 46.3206C157.507 46.1282 157.687 45.9382 157.868 45.7434C158.259 46.7815 157.858 46.4429 158.729 46.1804C159.165 46.0497 159.511 46.231 159.959 46.1258C160.121 46.0871 160.224 45.7814 160.402 45.7424C160.838 45.648 160.584 46.0687 160.853 46.0665C161.124 46.0628 161.514 45.6007 162 45.8064C161.493 46.6302 162.959 46.3615 163.029 45.7215C163.204 45.7203 163.35 45.7469 163.543 45.7288C163.365 47.3453 164.279 46.1982 164.642 45.9767C165.005 45.7556 164.99 46.19 165.075 46.173C165.32 46.1258 165.142 45.9455 165.313 45.9394C166.449 45.9031 167.518 46.1682 168.638 46.1924C168.799 46.1959 168.656 45.9504 168.844 45.9745C169.032 45.9987 169.213 46.2431 169.491 46.2261C169.565 46.2218 169.589 46.0062 169.705 46.006C172.14 46.0157 174.453 46.1994 176.937 46.2272C177.162 46.2296 177.338 45.8463 177.772 45.8595C178.207 45.8728 178.866 46.2188 179.405 46.2455C179.549 46.2528 179.587 45.9335 179.777 45.9419C180.423 45.971 180.979 46.231 181.65 46.2734C182.784 46.3447 183.971 46.1499 185.121 46.3386C185.339 46.3736 185.304 46.64 185.619 46.715C186.161 46.8445 185.957 46.4561 186.067 46.4041C186.426 46.2361 186.539 46.7522 186.887 46.6195C186.94 46.5989 186.864 46.2928 186.912 46.288C187.651 46.2348 187.69 46.9522 188.476 46.5674C189.175 46.9799 188.007 47.1205 187.888 47.3394C187.595 47.8717 188.369 48.4972 188.825 48.6981C189.218 48.8711 189.215 48.5397 189.371 48.5395C190.198 48.5383 191.431 48.4753 192.06 48.6326C192.441 48.7269 191.754 48.865 191.949 48.9739C192.142 49.0826 192.267 48.8336 192.465 49.1057C192.663 49.378 193.067 50.1791 192.99 50.5615ZM123.485 48.778C124.754 47.4713 128.118 47.6078 129.924 47.7324C131.423 47.8365 132.714 48.8433 132.405 47.3841C130.785 47.3745 129.475 47.5208 127.762 47.476C127.584 47.4712 126.522 47.3358 126.152 47.3116C125.944 47.2983 125.937 47.0572 125.654 47.0596C125.593 47.0609 125.251 47.3757 125.126 47.3673C124.699 47.3394 123.427 46.856 123.249 46.8699C122.756 46.9111 122.945 47.2857 122.733 47.3537C122.019 47.5788 121.94 47.0161 121.232 47.1988C121.106 47.2315 120.686 47.7218 120.162 47.6577C119.949 47.631 119.586 47.3779 119.423 47.39C118.534 47.4553 117.541 47.7906 116.727 47.735C116.06 47.6889 116.24 47.3104 115.887 47.2596C115.534 47.2102 115.108 47.6491 114.866 47.6745C114.48 47.7144 114.011 47.4651 113.891 47.4687C111.53 47.5425 109.431 47.8316 107.153 47.9357C108.7 48.1087 110.245 48.2675 111.781 48.4465C112.654 48.0545 112.219 48.4221 112.794 48.5443C113.248 48.6411 113.358 47.9771 113.955 48.0506C113.955 48.0506 113.954 48.0506 113.954 48.0506C114.262 48.0894 114.93 48.5492 115.585 48.3568C115.609 48.3495 115.667 48.0049 116.158 47.9928C117.262 47.9662 118.953 47.7894 120.195 47.8631C120.56 47.8849 120.485 48.2468 120.917 48.2916C121.231 48.324 121.595 47.9894 122.088 48.0642C122.706 48.1598 123.002 48.7354 123.426 47.9357C123.461 48.2212 123.444 48.4997 123.485 48.778ZM157.6 48.0821C157.687 48.1137 158.849 49.0065 158.504 48.0532C156.943 47.6394 155.255 47.8449 153.611 47.6126C154.172 48.5552 155.122 48.1837 156.274 48.1147C156.274 48.1147 156.275 48.1147 156.275 48.1147C156.329 48.1115 156.102 48.3579 156.411 48.3132C156.561 48.2914 157.136 47.914 157.6 48.0821Z" fill="white"/>
</svg>
