<svg width="104" height="42" viewBox="0 0 104 42" fill="none" xmlns="http://www.w3.org/2000/svg">
<g clip-path="url(#clip0_221_1618)">
<path d="M8.74612 15.5316C8.74612 20.0038 9.61216 22.1124 12.2605 22.1124C15.0113 22.1124 15.9276 19.9047 15.9276 15.0804C15.9276 10.6651 15.0113 8.51014 12.3714 8.51014C9.76278 8.4996 8.74612 10.7072 8.74612 15.5316ZM2.99132 36.0141C2.99132 38.888 5.89486 40.7878 11.4447 40.7878C17.3522 40.7878 20.3582 39.101 20.3582 36.3725C20.3582 34.576 18.9838 33.5998 16.3355 33.3446C11.9551 32.9335 8.08926 33.4986 5.18153 32.6256C3.75486 33.3953 2.99132 34.6266 2.99132 36.0141ZM22.5484 15.2238C22.5484 19.4409 19.1366 22.3591 12.5073 23.1287C8.68754 23.5399 6.39483 23.9489 6.39483 25.7454C6.39483 27.5925 9.7565 27.2847 15.3084 27.4323C21.3749 27.5862 24.5274 29.2794 24.5274 33.6441C24.5274 38.6245 19.7913 41.8674 11.3882 41.8674C4.054 41.8674 0.133789 39.548 0.133789 36.2713C0.133789 35.1411 0.642119 34.1628 1.61067 33.3446C2.33568 32.7731 3.1673 32.3543 4.05609 32.1133C2.58549 31.2403 1.87215 29.914 1.87215 28.2124C1.87215 24.824 4.52049 22.9242 9.82135 22.6163C4.72759 21.6928 2.08134 19.2279 2.08134 15.5316C2.08134 11.3735 5.95135 7.8839 12.0639 7.57394C12.5157 2.9035 14.8586 0.183472 17.4568 0.183472C19.1303 0.183472 20.2578 1.36426 20.2578 2.8529C20.2578 4.59878 19.0863 5.83017 17.507 5.83017C16.5384 5.83017 15.8774 5.21447 15.1138 5.21447C13.8399 5.21447 13.2311 5.93349 13.0763 7.62665C18.9838 7.9345 22.5484 11.0657 22.5484 15.2174M31.5185 19.5821C31.5185 26.9747 33.3008 30.6183 37.1206 30.6183C40.9404 30.6183 42.7687 26.9747 42.7687 19.5821C42.7687 12.1896 40.886 8.49327 37.1206 8.49327C33.3091 8.49959 31.5185 12.2022 31.5185 19.5821ZM49.6991 19.5821C49.6991 26.5635 44.5552 31.6452 37.1185 31.6452C29.6818 31.6452 24.5985 26.6205 24.5985 19.5821C24.5985 12.6007 29.6902 7.51912 37.1268 7.51912C44.5635 7.51912 49.7075 12.6049 49.7075 19.5821M58.8595 19.5821C58.8595 26.9747 60.6418 30.6183 64.4616 30.6183C68.2814 30.6183 70.1097 26.9747 70.1097 19.5821C70.1097 12.1896 68.227 8.49327 64.4616 8.49327C60.6418 8.49959 58.8595 12.2022 58.8595 19.5821ZM77.0402 19.5821C77.0402 26.5635 71.8962 31.6452 64.4616 31.6452C57.027 31.6452 51.9333 26.6205 51.9333 19.5821C51.9333 12.6007 57.0249 7.51912 64.4616 7.51912C71.8983 7.51912 77.0423 12.6049 77.0423 19.5821M90.9826 30.3674C94.4447 30.3674 97.0931 26.825 97.0931 20.3054C97.0931 14.2475 94.2418 10.6545 91.083 10.6545C89.556 10.6545 88.2297 11.3229 86.8553 12.6049V23.6411C86.8553 28.0564 87.9766 30.3653 90.9805 30.3653M86.8553 36.2692C86.8553 38.3778 87.213 39.5037 88.5288 39.9128C89.5978 40.2733 90.3613 40.1236 90.3613 40.7857C90.3613 41.1442 90.1061 41.4014 89.648 41.4014H77.8937C77.8089 41.4101 77.7233 41.4005 77.6424 41.3734C77.5616 41.3462 77.4874 41.3021 77.4247 41.2439C77.362 41.1857 77.3123 41.1148 77.2789 41.0358C77.2454 40.9568 77.2289 40.8716 77.2305 40.7857C77.2305 40.17 77.9439 40.3239 78.8099 39.9655C80.1843 39.4004 80.542 38.4769 80.542 36.2692V15.4304C80.542 13.2227 80.0839 12.4004 78.5045 11.7341C77.6907 11.3735 77.0276 11.4263 77.0276 10.8612C77.0276 9.98823 80.1864 10.1949 86.8595 7.67937V11.169C89.8635 8.75684 92.3591 7.52334 95.0179 7.52334C99.9067 7.52334 103.574 11.6308 103.574 17.8932C103.574 25.8487 98.2269 31.4448 90.4848 31.4448C89.2618 31.4368 88.0453 31.2638 86.8679 30.9304V36.2692H86.8553Z" fill="#DADADA"/>
</g>
<defs>
<clipPath id="clip0_221_1618">
<rect width="103.702" height="41.6406" fill="white" transform="translate(0 0.171875)"/>
</clipPath>
</defs>
</svg>
