<svg width="80" height="60" viewBox="0 0 80 60" fill="none" xmlns="http://www.w3.org/2000/svg">
<g clip-path="url(#clip0_221_887)">
<path d="M80.0001 34.3642C79.8301 35.3629 79.6651 36.3066 79.5001 37.2753C79.0452 39.732 77.8403 41.9091 76.9053 44.1861C75.1654 48.4154 73.3605 52.6148 71.5906 56.8292C71.2206 57.7659 70.5758 58.569 69.7406 59.133C68.9055 59.6971 67.9191 59.9958 66.911 59.99C64.2811 59.99 61.6563 59.99 59.0264 59.99C57.0266 59.99 55.9115 58.6468 56.2965 56.6595C57.4498 50.7207 58.6164 44.787 59.7963 38.8582C60.0563 37.535 60.0663 37.5349 58.7464 37.5349C55.8066 37.5349 52.8667 37.5349 49.9269 37.5349C47.965 37.5258 46.086 36.744 44.6977 35.3594C43.3095 33.9748 42.5243 32.0992 42.5125 30.1398C42.5125 22.5566 42.5125 14.97 42.5125 7.38016C42.5293 5.43802 43.3068 3.57967 44.6786 2.20306C46.0504 0.826443 47.9075 0.0410124 49.852 0.01498C57.3415 -0.00499334 64.8327 -0.00499334 72.3255 0.01498C76.0253 0.01498 78.7651 2.07224 79.8251 5.63249C79.8801 5.80726 79.9401 5.97703 79.9951 6.13182L80.0001 34.3642Z" fill="#CB2B1E"/>
<path d="M37.5826 20.3229C37.5826 24.2476 37.5526 28.1724 37.5826 32.0922C37.6125 36.0119 36.4776 39.5422 34.9277 43.0526C32.9278 47.6115 31.028 52.2353 29.0931 56.8342C28.7217 57.7715 28.0749 58.5746 27.2379 59.1379C26.4008 59.7011 25.4127 59.9982 24.4034 59.99C21.7803 59.99 19.1521 59.99 16.5189 59.99C14.5191 59.99 13.424 58.6368 13.804 56.6444C14.6306 52.3901 15.4639 48.1358 16.3039 43.8814C16.6638 42.0189 17.0039 40.1514 17.4039 38.2989C17.5389 37.6797 17.3639 37.5249 16.7689 37.5249C13.7224 37.5449 10.6776 37.5449 7.63447 37.5249C6.62956 37.5459 5.63067 37.3641 4.69777 36.9904C3.76487 36.6167 2.91715 36.0589 2.20525 35.3502C1.49334 34.6415 0.931931 33.7967 0.554715 32.8662C0.177499 31.9357 -0.00776278 30.9387 0.00994917 29.935C0.00994917 22.475 0.00994917 15.0166 0.00994917 7.55988C-0.00623312 6.56282 0.178221 5.57268 0.552518 4.64822C0.926815 3.72375 1.48334 2.88381 2.18889 2.17823C2.89444 1.47265 3.73466 0.915805 4.6598 0.540762C5.58495 0.165719 6.57608 -0.0198789 7.57442 -0.00503428C15.0706 -0.00503428 22.5701 -0.00503428 30.073 -0.00503428C31.0652 -0.0157409 32.0495 0.171613 32.9682 0.54605C33.8869 0.920486 34.7215 1.47445 35.4229 2.17542C36.1243 2.87639 36.6784 3.71023 37.0527 4.62801C37.427 5.54579 37.6139 6.529 37.6026 7.51992C37.5976 11.7942 37.5826 16.0785 37.5826 20.3229Z" fill="#CB2B1E"/>
</g>
<defs>
<clipPath id="clip0_221_887">
<rect width="80" height="60" fill="white"/>
</clipPath>
</defs>
</svg>
